<?xml version="1.0" encoding="utf-8"?>
<!-- Generator: Adobe Illustrator 22.1.0, SVG Export Plug-In . SVG Version: 6.00 Build 0)  -->
<svg version="1.1" id="Calque_1" xmlns="http://www.w3.org/2000/svg" xmlns:xlink="http://www.w3.org/1999/xlink" x="0px" y="0px" width="32px" height="32px"
	 viewBox="0 0 100 100" style="enable-background:new 0 0 100 100;" xml:space="preserve">
<style type="text/css">
	.st0{fill:#FF0000;}
	.st1{fill:#8CC63F;}
	.st2{fill:#FBB03B;}
	.st3{fill:#808080;}
</style>
<g>
	<path d="M45.8,85.2h-2C21,85.2,2.5,66.7,2.5,43.9C2.5,21,21,2.5,43.8,2.5c22.8,0,41.4,18.5,41.4,41.4v2H45.8V85.2z M43.8,5.5
		C22.7,5.5,5.5,22.7,5.5,43.9c0,20.8,16.7,37.8,37.3,38.3V42.8h39.4C81.7,22.2,64.7,5.5,43.8,5.5z"/>
	<path d="M50.1,50.1v46.1c25.3-0.3,45.8-20.7,46.1-46.1H50.1z M74.3,86h-4.6v-4.6h4.6V86z M76.4,71.8c-1.9,2.5-2.4,4-2.4,5.9
		c0,0.5,0.1,1.1,0.2,1.7h-4.2c-0.2-0.5-0.3-1.1-0.3-1.9c0-2.4,0.6-4.2,2.5-6.8c2.1-3,2.7-5,2.7-7.9c0-2.2-0.9-3-2.4-3
		c-1.5,0-2.4,0.8-2.4,3v3.3h-4.5v-3c0-4.8,2.4-7.6,7-7.6c4.6,0,7,2.8,7,7.6C79.6,66.3,78.7,68.6,76.4,71.8z"/>
</g>
</svg>
