<?xml version="1.0" encoding="utf-8"?>
<!-- Generator: Adobe Illustrator 22.1.0, SVG Export Plug-In . SVG Version: 6.00 Build 0)  -->
<svg version="1.1" id="Calque_1" xmlns="http://www.w3.org/2000/svg" xmlns:xlink="http://www.w3.org/1999/xlink" x="0px" y="0px" width="32px" height="32px"
	 viewBox="0 0 100 100" style="enable-background:new 0 0 100 100;" xml:space="preserve">
<style type="text/css">
	.st0{fill:#FF0000;}
	.st1{fill:#8CC63F;}
	.st2{fill:#FBB03B;}
	.st3{fill:#808080;}
</style>
<path d="M84.6,25.9V78h-9l0-52.2H84.6 M86.6,23.9h-13l0,56.2h13V23.9L86.6,23.9z"/>
<path d="M81.6,12c1.7,0,3,1.3,3,3v5.4h-9V15c0-1.7,1.3-3,3-3H81.6 M81.6,10h-3c-2.8,0-5,2.3-5,5v7.4h13V15
	C86.6,12.3,84.4,10,81.6,10L81.6,10z"/>
<g>
	<polygon points="81.9,88.8 78.3,88.8 80.1,91.4 81.9,88.8 	"/>
	<path d="M82.8,84l-1.5,2.1h-2.5L77.4,84H82.8 M86.6,82h-13l4.2,6.1h4.6L86.6,82L86.6,82z"/>
</g>
<g id="document_1_">
	<path d="M65.6,91H10.9c-0.8,0-1.5-0.7-1.5-1.5v-79c0-0.8,0.7-1.5,1.5-1.5h27.3c0.8,0,1.5,0.7,1.5,1.5S39.1,12,38.3,12H12.4v76h51.7
		V28.7c0-0.8,0.7-1.5,1.5-1.5s1.5,0.7,1.5,1.5v60.8C67.1,90.3,66.4,91,65.6,91z"/>
	<path d="M65.6,30.2c-0.3,0-0.6-0.1-0.8-0.3L37.4,11.7c-0.7-0.5-0.9-1.4-0.4-2.1c0.5-0.7,1.4-0.9,2.1-0.4l27.3,18.2
		c0.7,0.5,0.9,1.4,0.4,2.1C66.6,30,66.1,30.2,65.6,30.2z"/>
	<path d="M38.3,30.2c-0.8,0-1.5-0.7-1.5-1.5V10.5c0-0.8,0.7-1.5,1.5-1.5s1.5,0.7,1.5,1.5v18.2C39.8,29.6,39.1,30.2,38.3,30.2z"/>
	<path d="M65.6,30.2H38.3c-0.8,0-1.5-0.7-1.5-1.5s0.7-1.5,1.5-1.5h27.3c0.8,0,1.5,0.7,1.5,1.5S66.4,30.2,65.6,30.2z"/>
	<path d="M38.3,54.5H23.1c-0.8,0-1.5-0.7-1.5-1.5s0.7-1.5,1.5-1.5h15.2c0.8,0,1.5,0.7,1.5,1.5S39.1,54.5,38.3,54.5z"/>
	<path d="M50.4,66.7H23.1c-0.8,0-1.5-0.7-1.5-1.5s0.7-1.5,1.5-1.5h27.3c0.8,0,1.5,0.7,1.5,1.5S51.3,66.7,50.4,66.7z"/>
</g>
</svg>
