<?xml version="1.0" encoding="utf-8"?>
<!-- Generator: Adobe Illustrator 22.1.0, SVG Export Plug-In . SVG Version: 6.00 Build 0)  -->
<svg version="1.1" id="Calque_1" xmlns="http://www.w3.org/2000/svg" xmlns:xlink="http://www.w3.org/1999/xlink" x="0px" y="0px" width="32px" height="32px"
	 viewBox="0 0 100 100" style="enable-background:new 0 0 100 100;" xml:space="preserve">
<style type="text/css">
	.st0{fill:#FF0000;}
	.st1{fill:#8CC63F;}
	.st2{fill:#FBB03B;}
	.st3{fill:#808080;}
</style>
<path d="M86.5,94H13.5C9.9,94,7,91.1,7,87.5V14.6c0-3.6,2.9-6.5,6.5-6.5h72.9c3.6,0,6.5,2.9,6.5,6.5v72.9C93,91.1,90.1,94,86.5,94z
	 M13.5,11.1c-1.9,0-3.5,1.6-3.5,3.5v72.9c0,1.9,1.6,3.5,3.5,3.5h72.9c1.9,0,3.5-1.6,3.5-3.5V14.6c0-1.9-1.6-3.5-3.5-3.5H13.5z"/>
<path d="M19.6,62.1c-2.7,0-4.8-2.2-4.8-4.8V44.8c0-2.7,2.2-4.8,4.8-4.8c2.7,0,4.8,2.2,4.8,4.8v12.5C24.5,59.9,22.3,62.1,19.6,62.1z
	 M19.6,43c-1,0-1.8,0.8-1.8,1.8v12.5c0,1,0.8,1.8,1.8,1.8c1,0,1.8-0.8,1.8-1.8V44.8C21.5,43.8,20.6,43,19.6,43z"/>
<path d="M51.3,67.4c-0.1,0-0.2,0-0.3,0l-18.7-3.6c-3.4-0.1-6.1-2-6.1-4.5v-17c0-2.5,2.7-4.5,6.1-4.5l18.7-3c0.1,0,0.2,0,0.2,0
	c3.5,0,6.2,2,6.2,4.5v23.7C57.5,65.4,54.8,67.4,51.3,67.4z M51.4,37.6l-18.7,3c-0.1,0-0.2,0-0.2,0c-1.9,0-3.2,0.9-3.2,1.5v17
	c0,0.6,1.3,1.5,3.2,1.5c0.1,0,0.2,0,0.3,0l18.7,3.6c1.9,0,3.1-0.9,3.1-1.5V39.2C54.5,38.6,53.3,37.7,51.4,37.6z"/>
<path d="M72.1,75.3c-0.4,0-0.8-0.2-1.1-0.5c-0.6-0.6-0.5-1.6,0.1-2.1c6.8-6.2,10.3-13,10.3-20.2c0-12.9-10.9-23-11-23.1
	c-0.6-0.6-0.7-1.5-0.1-2.1c0.6-0.6,1.5-0.7,2.1-0.1c0.5,0.4,12,11.1,12,25.3c0,8.1-3.8,15.7-11.2,22.4
	C72.8,75.1,72.5,75.3,72.1,75.3z"/>
<path d="M65.5,68.2c-0.4,0-0.8-0.2-1.1-0.5c-0.6-0.6-0.5-1.6,0.1-2.1c4.6-4.2,6.9-8.7,6.9-13.6c0-8.6-7.4-15.5-7.4-15.6
	c-0.6-0.6-0.7-1.5-0.1-2.1c0.6-0.6,1.5-0.7,2.1-0.1c0.3,0.3,8.4,7.8,8.4,17.8c0,5.7-2.7,11-7.9,15.8C66.2,68.1,65.8,68.2,65.5,68.2z
	"/>
</svg>
