<?xml version="1.0" encoding="utf-8"?>
<!-- Generator: Adobe Illustrator 22.1.0, SVG Export Plug-In . SVG Version: 6.00 Build 0)  -->
<svg version="1.1" id="Calque_1" xmlns="http://www.w3.org/2000/svg" xmlns:xlink="http://www.w3.org/1999/xlink" x="0px" y="0px" width="32px" height="32px"
	 viewBox="0 0 100 100" style="enable-background:new 0 0 100 100;" xml:space="preserve">
<style type="text/css">
	.st0{fill:#FF0000;}
	.st1{fill:#8CC63F;}
	.st2{fill:#FBB03B;}
	.st3{fill:#808080;}
</style>
<path d="M88.8,25c1.1,0,2,0.9,2,2v52c0,1.1-0.9,2-2,2H11.2c-1.1,0-2-0.9-2-2V27c0-1.1,0.9-2,2-2H88.8 M88.8,22H11.2
	c-2.8,0-5,2.3-5,5v52c0,2.8,2.3,5,5,5h77.5c2.8,0,5-2.3,5-5V27C93.8,24.3,91.5,22,88.8,22L88.8,22z"/>
<path d="M32.7,54.3c2.8-1.7,4.7-4.8,4.7-8.4c0-5.5-4.4-9.9-9.9-9.9s-9.9,4.4-9.9,9.9c0,3.5,1.9,6.6,4.7,8.4
	c-5.8,2.1-9.9,7.7-9.9,14.2c0,0.8,0.7,1.5,1.5,1.5s1.5-0.7,1.5-1.5c0-6.7,5.5-12.2,12.2-12.2s12.2,5.5,12.2,12.2
	c0,0.8,0.7,1.5,1.5,1.5s1.5-0.7,1.5-1.5C42.7,62,38.5,56.4,32.7,54.3z M27.5,39c3.8,0,6.9,3.1,6.9,6.9s-3.1,6.9-6.9,6.9
	s-6.9-3.1-6.9-6.9S23.7,39,27.5,39z"/>
<path d="M85,48.5H47.7c-0.8,0-1.5-0.7-1.5-1.5s0.7-1.5,1.5-1.5H85c0.8,0,1.5,0.7,1.5,1.5S85.8,48.5,85,48.5z"/>
<path d="M85,57.5H47.7c-0.8,0-1.5-0.7-1.5-1.5s0.7-1.5,1.5-1.5H85c0.8,0,1.5,0.7,1.5,1.5S85.8,57.5,85,57.5z"/>
<path d="M67.9,66.5H47.7c-0.8,0-1.5-0.7-1.5-1.5s0.7-1.5,1.5-1.5h20.3c0.8,0,1.5,0.7,1.5,1.5S68.8,66.5,67.9,66.5z"/>
</svg>
