<?xml version="1.0" encoding="utf-8"?>
<!-- Generator: Adobe Illustrator 22.1.0, SVG Export Plug-In . SVG Version: 6.00 Build 0)  -->
<svg version="1.1" id="Calque_1" xmlns="http://www.w3.org/2000/svg" xmlns:xlink="http://www.w3.org/1999/xlink" x="0px" y="0px" width="32px" height="32px"
	 viewBox="0 0 100 100" style="enable-background:new 0 0 100 100;" xml:space="preserve">
<style type="text/css">
	.st0{fill:#FF0000;}
	.st1{fill:#8CC63F;}
	.st2{fill:#FBB03B;}
	.st3{fill:#808080;}
</style>
<path d="M27.1,92H13.9c-3.6,0-6.5-2.9-6.5-6.5V16c0-3.6,2.9-6.5,6.5-6.5h13.2c3.6,0,6.5,2.9,6.5,6.5v69.5C33.6,89.1,30.7,92,27.1,92
	z M13.9,12.5c-1.9,0-3.5,1.6-3.5,3.5v69.5c0,1.9,1.6,3.5,3.5,3.5h13.2c1.9,0,3.5-1.6,3.5-3.5V16c0-1.9-1.6-3.5-3.5-3.5H13.9z"/>
<path d="M22.7,22.9c1.1,0,2,0.9,2,2v0.7c0,1.1-0.9,2-2,2h-4.3c-1.1,0-2-0.9-2-2v-0.7c0-1.1,0.9-2,2-2H22.7 M22.7,19.9h-4.3
	c-2.8,0-5,2.3-5,5v0.7c0,2.8,2.3,5,5,5h4.3c2.8,0,5-2.3,5-5v-0.7C27.7,22.2,25.4,19.9,22.7,19.9L22.7,19.9z"/>
<path d="M26.3,77.5H14.7c-0.7,0-1.3,0.6-1.3,1.3s0.6,1.3,1.3,1.3h11.6c0.7,0,1.3-0.6,1.3-1.3S27.1,77.5,26.3,77.5L26.3,77.5z"/>
<path d="M26.3,82H14.7c-0.7,0-1.3,0.6-1.3,1.3s0.6,1.3,1.3,1.3h11.6c0.7,0,1.3-0.6,1.3-1.3S27.1,82,26.3,82L26.3,82z"/>
<path d="M56.6,92H43.4c-3.6,0-6.5-2.9-6.5-6.5V16c0-3.6,2.9-6.5,6.5-6.5h13.2c3.6,0,6.5,2.9,6.5,6.5v69.5C63.1,89.1,60.2,92,56.6,92
	z M43.4,12.5c-1.9,0-3.5,1.6-3.5,3.5v69.5c0,1.9,1.6,3.5,3.5,3.5h13.2c1.9,0,3.5-1.6,3.5-3.5V16c0-1.9-1.6-3.5-3.5-3.5H43.4z"/>
<path d="M52.1,22.9c1.1,0,2,0.9,2,2v0.7c0,1.1-0.9,2-2,2h-4.3c-1.1,0-2-0.9-2-2v-0.7c0-1.1,0.9-2,2-2H52.1 M52.1,19.9h-4.3
	c-2.8,0-5,2.3-5,5v0.7c0,2.8,2.3,5,5,5h4.3c2.8,0,5-2.3,5-5v-0.7C57.1,22.2,54.9,19.9,52.1,19.9L52.1,19.9z"/>
<path d="M55.8,77.5H44.2c-0.7,0-1.3,0.6-1.3,1.3s0.6,1.3,1.3,1.3h11.6c0.7,0,1.3-0.6,1.3-1.3S56.5,77.5,55.8,77.5L55.8,77.5z"/>
<path d="M55.8,82H44.2c-0.7,0-1.3,0.6-1.3,1.3s0.6,1.3,1.3,1.3h11.6c0.7,0,1.3-0.6,1.3-1.3S56.5,82,55.8,82L55.8,82z"/>
<path d="M86.1,92H72.9c-3.6,0-6.5-2.9-6.5-6.5V16c0-3.6,2.9-6.5,6.5-6.5h13.2c3.6,0,6.5,2.9,6.5,6.5v69.5C92.6,89.1,89.7,92,86.1,92
	z M72.9,12.5c-1.9,0-3.5,1.6-3.5,3.5v69.5c0,1.9,1.6,3.5,3.5,3.5h13.2c1.9,0,3.5-1.6,3.5-3.5V16c0-1.9-1.6-3.5-3.5-3.5H72.9z"/>
<path d="M81.6,22.9c1.1,0,2,0.9,2,2v0.7c0,1.1-0.9,2-2,2h-4.3c-1.1,0-2-0.9-2-2v-0.7c0-1.1,0.9-2,2-2H81.6 M81.6,19.9h-4.3
	c-2.8,0-5,2.3-5,5v0.7c0,2.8,2.3,5,5,5h4.3c2.8,0,5-2.3,5-5v-0.7C86.6,22.2,84.4,19.9,81.6,19.9L81.6,19.9z"/>
<path d="M85.3,77.5H73.7c-0.7,0-1.3,0.6-1.3,1.3s0.6,1.3,1.3,1.3h11.6c0.7,0,1.3-0.6,1.3-1.3S86,77.5,85.3,77.5L85.3,77.5z"/>
<path d="M85.3,82H73.7c-0.7,0-1.3,0.6-1.3,1.3s0.6,1.3,1.3,1.3h11.6c0.7,0,1.3-0.6,1.3-1.3S86,82,85.3,82L85.3,82z"/>
</svg>
