<?xml version="1.0" encoding="utf-8"?>
<!-- Generator: Adobe Illustrator 22.1.0, SVG Export Plug-In . SVG Version: 6.00 Build 0)  -->
<svg version="1.1" id="Calque_1" xmlns="http://www.w3.org/2000/svg" xmlns:xlink="http://www.w3.org/1999/xlink" x="0px" y="0px" width="32px" height="32px"
	 viewBox="0 0 100 100" style="enable-background:new 0 0 100 100;" xml:space="preserve">
<style type="text/css">
	.st0{fill:#FF0000;}
	.st1{fill:#8CC63F;}
	.st2{fill:#FBB03B;}
	.st3{fill:#808080;}
</style>
<g>
	<path d="M18.1,48.6L18.1,48.6l-1.9,17.2h-7L5.7,33.5h4.9l2.7,25.5h0.1l2.4-25.5h4.9l2.5,25.7h0.1l2.6-25.7h4.4l-3.6,32.3h-6.7
		L18.1,48.6z"/>
	<path d="M50,48.6L50,48.6l-1.9,17.2h-7l-3.6-32.3h4.9l2.7,25.5h0.1l2.4-25.5h4.9L55,59.1h0.1l2.6-25.7h4.4l-3.6,32.3h-6.7L50,48.6z
		"/>
	<path d="M81.9,48.6L81.9,48.6L80,65.8h-7l-3.6-32.3h4.9L77,58.9h0.1l2.4-25.5h4.9l2.5,25.7H87l2.6-25.7H94l-3.6,32.3h-6.7
		L81.9,48.6z"/>
</g>
</svg>
