<?xml version="1.0" encoding="utf-8"?>
<!-- Generator: Adobe Illustrator 22.1.0, SVG Export Plug-In . SVG Version: 6.00 Build 0)  -->
<svg version="1.1" id="Calque_1" xmlns="http://www.w3.org/2000/svg" xmlns:xlink="http://www.w3.org/1999/xlink" x="0px" y="0px" width="32px" height="32px"
	 viewBox="0 0 100 100" style="enable-background:new 0 0 100 100;" xml:space="preserve">
<style type="text/css">
	.st0{fill:#FF0000;}
	.st1{fill:#8CC63F;}
	.st2{fill:#FBB03B;}
	.st3{fill:#808080;}
</style>
<path d="M96.2,36.6C95.9,36.3,95.5,36,95,36H83.3v-5.7l4.2,1.6L84.8,25l5.8-4.7l-7.4-1.1l-1.2-7.3l-4.6,5.8L70.5,15l1.7,4.5H9
	c-0.8,0-1.5,0.7-1.5,1.5v59.5c0,0.1,0,0.1,0,0.2c0,0,0,0.1,0,0.1c0,0.2,0.1,0.4,0.3,0.6c0,0,0,0,0,0c0,0,0,0,0.1,0.1
	c0,0.1,0.1,0.1,0.2,0.2c0,0,0.1,0.1,0.1,0.1c0.1,0,0.1,0.1,0.2,0.1c0,0,0.1,0,0.1,0.1c0.1,0,0.1,0.1,0.2,0.1c0,0,0.1,0,0.1,0
	c0.1,0,0.2,0,0.3,0h72.8c0.7,0,1.2-0.4,1.4-1.1l13.2-43C96.6,37.5,96.5,37,96.2,36.6z M72.5,22.5l-5.1,4.1l7.4,1.1l1.2,7.3l4.4-5.4
	V36h-58c-0.7,0-1.2,0.4-1.4,1.1L10.5,70.6V22.5H72.5z M80.7,79H11l12.3-40h58.4H93L80.7,79z"/>
</svg>
