<?xml version="1.0" encoding="utf-8"?>
<!-- Generator: Adobe Illustrator 22.1.0, SVG Export Plug-In . SVG Version: 6.00 Build 0)  -->
<svg version="1.1" id="Calque_1" xmlns="http://www.w3.org/2000/svg" xmlns:xlink="http://www.w3.org/1999/xlink" x="0px" y="0px" width="32px" height="32px"
	 viewBox="0 0 100 100" style="enable-background:new 0 0 100 100;" xml:space="preserve">
<style type="text/css">
	.st0{fill:#FF0000;}
	.st1{fill:#8CC63F;}
	.st2{fill:#FBB03B;}
	.st3{fill:#808080;}
</style>
<path d="M85.6,25.9V78h-9V25.9H85.6 M87.6,23.9h-13V80h13V23.9L87.6,23.9z"/>
<path d="M82.6,12c1.7,0,3,1.3,3,3v5.4h-9V15c0-1.7,1.3-3,3-3H82.6 M82.6,10h-3c-2.8,0-5,2.3-5,5v7.4h13V15
	C87.6,12.3,85.4,10,82.6,10L82.6,10z"/>
<g>
	<polygon points="82.9,88.8 79.3,88.8 81.1,91.4 82.9,88.8 	"/>
	<path d="M83.8,84l-1.5,2.1h-2.5L78.4,84H83.8 M87.6,82h-13l4.2,6.1h4.6L87.6,82L87.6,82z"/>
</g>
<path d="M45.5,51c5.9-3,9.9-9,9.9-16c0-9.9-8-18-18-18s-18,8-18,18c0,7,4,13.1,9.9,16c-10.6,3.4-18.2,13.3-18.2,25
	c0,0.8,0.7,1.5,1.5,1.5s1.5-0.7,1.5-1.5c0-12.2,9.4-22.2,21.3-23.2c0.7,0.1,1.3,0.1,2,0.1s1.3,0,2-0.1c11.9,1,21.3,11,21.3,23.2
	c0,0.8,0.7,1.5,1.5,1.5s1.5-0.7,1.5-1.5C63.7,64.3,56,54.4,45.5,51z M22.4,35c0-8.2,6.7-15,15-15s15,6.7,15,15
	c0,7.6-5.7,13.9-13.1,14.8c-0.6,0-1.3-0.1-1.9-0.1c-0.6,0-1.3,0-1.9,0.1C28.1,48.8,22.4,42.6,22.4,35z"/>
</svg>
