<?xml version="1.0" encoding="utf-8"?>
<!-- Generator: Adobe Illustrator 22.1.0, SVG Export Plug-In . SVG Version: 6.00 Build 0)  -->
<svg version="1.1" id="Calque_1" xmlns="http://www.w3.org/2000/svg" xmlns:xlink="http://www.w3.org/1999/xlink" x="0px" y="0px" width="32px" height="32px"
	 viewBox="0 0 100 100" style="enable-background:new 0 0 100 100;" xml:space="preserve">
<style type="text/css">
	.st0{fill:#FF0000;}
	.st1{fill:#8CC63F;}
	.st2{fill:#FBB03B;}
	.st3{fill:#808080;}
</style>
<path d="M49,46c-6.9,0-12.5-5.6-12.5-12.5S42.1,21,49,21s12.5,5.6,12.5,12.5S55.9,46,49,46z M49,24c-5.2,0-9.5,4.3-9.5,9.5
	S43.8,43,49,43s9.5-4.3,9.5-9.5S54.2,24,49,24z"/>
<path d="M53.5,91h-9c-3.6,0-6.5-2.9-6.5-6.5c0-0.1,0-0.1,0-0.2l4-27.9c0.1-3.5,3-6.4,6.5-6.4h1c3.5,0,6.4,2.9,6.5,6.4l4,27.9
	c0,0.1,0,0.1,0,0.2C60,88.1,57.1,91,53.5,91z M41,84.6c0.1,1.9,1.6,3.4,3.5,3.4h9c1.9,0,3.4-1.5,3.5-3.4l-4-27.9c0-0.1,0-0.1,0-0.2
	c0-1.9-1.6-3.5-3.5-3.5h-1c-1.9,0-3.5,1.6-3.5,3.5c0,0.1,0,0.1,0,0.2L41,84.6z"/>
<path d="M66.5,48c-0.4,0-0.9-0.2-1.2-0.6c-0.5-0.6-0.4-1.6,0.2-2.1c4.5-3.7,6.8-7.7,6.8-11.9c0-7.6-7.3-13.6-7.4-13.7
	c-0.6-0.5-0.7-1.5-0.2-2.1c0.5-0.6,1.5-0.7,2.1-0.2c0.3,0.3,8.5,7,8.5,16c0,5.2-2.7,10-8,14.2C67.1,47.9,66.8,48,66.5,48z"/>
<path d="M74.9,54.5c-0.4,0-0.9-0.2-1.2-0.6c-0.5-0.6-0.4-1.6,0.2-2.1c6.8-5.5,10.3-11.6,10.3-18c0-11.5-10.9-20.5-11.1-20.6
	c-0.6-0.5-0.7-1.5-0.2-2.1c0.5-0.6,1.5-0.7,2.1-0.2c0.5,0.4,12.2,10,12.2,22.9c0,7.4-3.8,14.2-11.4,20.4
	C75.5,54.4,75.2,54.5,74.9,54.5z"/>
<path d="M32.2,48c-0.3,0-0.7-0.1-0.9-0.3c-5.3-4.3-8-9.1-8-14.2c0-9,8.1-15.7,8.5-16c0.6-0.5,1.6-0.4,2.1,0.2
	c0.5,0.6,0.4,1.6-0.2,2.1c-0.1,0.1-7.4,6.1-7.4,13.7c0,4.2,2.3,8.2,6.8,11.9c0.6,0.5,0.7,1.5,0.2,2.1C33.1,47.8,32.6,48,32.2,48z"/>
<path d="M23.8,54.5c-0.3,0-0.7-0.1-0.9-0.3c-7.6-6.1-11.4-13-11.4-20.4c0-12.9,11.7-22.5,12.2-22.9c0.6-0.5,1.6-0.4,2.1,0.2
	s0.4,1.6-0.2,2.1c-0.1,0.1-11.1,9.2-11.1,20.6c0,6.4,3.5,12.5,10.3,18c0.6,0.5,0.7,1.5,0.2,2.1C24.7,54.3,24.2,54.5,23.8,54.5z"/>
</svg>
