<?xml version="1.0" encoding="utf-8"?>
<!-- Generator: Adobe Illustrator 22.1.0, SVG Export Plug-In . SVG Version: 6.00 Build 0)  -->
<svg version="1.1" id="Calque_1" xmlns="http://www.w3.org/2000/svg" xmlns:xlink="http://www.w3.org/1999/xlink" x="0px" y="0px" width="32px" height="32px"
	 viewBox="0 0 100 100" style="enable-background:new 0 0 100 100;" xml:space="preserve">
<style type="text/css">
	.st0{fill:#FF0000;}
	.st1{fill:#8CC63F;}
	.st2{fill:#FBB03B;}
	.st3{fill:#808080;}
</style>
<rect x="13.7" width="3.4" height="100"/>
<path d="M37,25v10H24V25H37 M37.6,23H23.4c-0.8,0-1.4,0.6-1.4,1.4v11.3c0,0.8,0.6,1.4,1.4,1.4h14.3c0.8,0,1.4-0.6,1.4-1.4V24.4
	C39,23.6,38.4,23,37.6,23L37.6,23z"/>
<path d="M93,45.5v10H24v-10H93 M93.6,43.5H23.4c-0.8,0-1.4,0.6-1.4,1.4v11.3c0,0.8,0.6,1.4,1.4,1.4h70.3c0.8,0,1.4-0.6,1.4-1.4V44.9
	C95,44.1,94.4,43.5,93.6,43.5L93.6,43.5z"/>
<path d="M72.5,66v10H24V66H72.5 M73.1,64H23.4c-0.8,0-1.4,0.6-1.4,1.4v11.3c0,0.8,0.6,1.4,1.4,1.4h49.7c0.8,0,1.4-0.6,1.4-1.4V65.4
	C74.5,64.6,73.9,64,73.1,64L73.1,64z"/>
</svg>
