<?xml version="1.0" encoding="utf-8"?>
<!-- Generator: Adobe Illustrator 22.1.0, SVG Export Plug-In . SVG Version: 6.00 Build 0)  -->
<svg version="1.1" id="Calque_1" xmlns="http://www.w3.org/2000/svg" xmlns:xlink="http://www.w3.org/1999/xlink" x="0px" y="0px" width="32px" height="32px"
	 viewBox="0 0 100 100" style="enable-background:new 0 0 100 100;" xml:space="preserve">
<style type="text/css">
	.st0{fill:#FF0000;}
	.st1{fill:#8CC63F;}
	.st2{fill:#FBB03B;}
	.st3{fill:#808080;}
</style>
<path d="M86,67.8c-0.9-0.6-1.8-1.1-2.9-1.7c-1,0.6-2.2,1.1-3.5,1.7c1.3,0.5,2.4,1.1,3.4,1.7c3.2,1.8,4.9,3.8,4.9,5.5
	c0,5-14.5,12-38,12s-38-7-38-12c0-1.7,1.7-3.7,4.9-5.5c1-0.6,2.1-1.1,3.4-1.7c-1.3-0.5-2.5-1.1-3.5-1.7c-1.1,0.5-2,1.1-2.9,1.7
	C10.8,70,9,72.4,9,75c0,8.3,18.4,15,41,15s41-6.7,41-15C91,72.4,89.2,70,86,67.8z M62.1,60.7C58.3,60.2,54.2,60,50,60
	s-8.3,0.2-12.1,0.7c3.8,0.4,7.9,0.7,12.1,0.7S58.3,61.1,62.1,60.7z"/>
<path d="M50,45.7c-4.2,0-8.3,0.2-12.1,0.7C41.7,46.8,45.8,47,50,47s8.3-0.2,12.1-0.7C58.3,45.9,54.2,45.7,50,45.7z M86,53.5
	c-0.9-0.6-1.8-1.2-2.9-1.7c-1,0.6-2.1,1.1-3.5,1.7c1.3,0.5,2.5,1.1,3.5,1.7C86.3,57,88,59,88,60.7c0,1.7-1.7,3.7-4.9,5.5
	c-1,0.6-2.2,1.1-3.5,1.7c-6.6,2.7-16.7,4.8-29.7,4.8s-23.1-2.1-29.7-4.8c-1.3-0.5-2.5-1.1-3.5-1.7c-3.2-1.8-4.9-3.8-4.9-5.5
	c0-1.7,1.7-3.7,4.9-5.5c1-0.6,2.1-1.1,3.5-1.7c-1.3-0.5-2.5-1.1-3.5-1.7c-1.1,0.5-2,1.1-2.9,1.7c-3.2,2.1-5,4.6-5,7.2
	c0,2.6,1.8,5,5,7.2c0.9,0.6,1.8,1.1,2.9,1.7c7.5,3.7,19.5,6.2,33.1,6.2s25.7-2.4,33.1-6.2c1.1-0.5,2-1.1,2.9-1.7
	c3.2-2.1,5-4.6,5-7.2C91,58.1,89.2,55.6,86,53.5z"/>
<path d="M86,39.2c-0.9-0.6-1.9-1.1-2.9-1.7c-1,0.6-2.1,1.1-3.4,1.7c1.3,0.5,2.5,1.1,3.5,1.7c3.2,1.8,4.9,3.8,4.9,5.5
	c0,1.7-1.7,3.7-4.9,5.5c-1,0.6-2.1,1.1-3.5,1.7c-6.6,2.7-16.7,4.8-29.7,4.8s-23.1-2.1-29.7-4.8c-1.3-0.5-2.5-1.1-3.5-1.7
	C13.7,50,12,48,12,46.3c0-1.7,1.7-3.7,4.9-5.5c1-0.6,2.2-1.1,3.5-1.7c-1.3-0.5-2.4-1.1-3.4-1.7c-1.1,0.5-2,1.1-2.9,1.7
	c-3.2,2.1-5,4.6-5,7.2c0,2.6,1.8,5,5,7.2c0.9,0.6,1.8,1.2,2.9,1.7c5.1,2.6,12.5,4.5,21,5.5c3.8,0.4,7.9,0.7,12.1,0.7
	s8.3-0.2,12.1-0.7c8.5-1,15.9-2.9,21-5.5c1.1-0.5,2-1.1,2.9-1.7c3.2-2.1,5-4.6,5-7.2C91,43.7,89.2,41.3,86,39.2z"/>
<path d="M50,17C27.4,17,9,23.7,9,32c0,2.6,1.8,5,5,7.2c0.9,0.6,1.8,1.1,2.9,1.7c5.2,2.6,12.5,4.5,21,5.5C41.7,46.8,45.8,47,50,47
	s8.3-0.2,12.1-0.7c8.5-1,15.9-2.9,21-5.5c1.1-0.5,2-1.1,2.9-1.7c3.2-2.1,5-4.6,5-7.2C91,23.7,72.6,17,50,17z M83.1,37.5
	c-1,0.6-2.1,1.1-3.4,1.7C73.1,41.9,62.9,44,50,44s-23.1-2.1-29.7-4.8c-1.3-0.5-2.4-1.1-3.4-1.7C13.7,35.7,12,33.7,12,32
	c0-5,14.5-12,38-12s38,7,38,12C88,33.7,86.3,35.7,83.1,37.5z"/>
<path d="M10.5,77C9.7,77,9,76.3,9,75.5v-44c0-0.8,0.7-1.5,1.5-1.5s1.5,0.7,1.5,1.5v44C12,76.3,11.3,77,10.5,77z"/>
<path d="M89.5,77c-0.8,0-1.5-0.7-1.5-1.5v-44c0-0.8,0.7-1.5,1.5-1.5s1.5,0.7,1.5,1.5v44C91,76.3,90.3,77,89.5,77z"/>
</svg>
