<?xml version="1.0" encoding="utf-8"?>
<!-- Generator: Adobe Illustrator 22.1.0, SVG Export Plug-In . SVG Version: 6.00 Build 0)  -->
<svg version="1.1" id="Calque_1" xmlns="http://www.w3.org/2000/svg" xmlns:xlink="http://www.w3.org/1999/xlink" x="0px" y="0px" width="32px" height="32px"
	 viewBox="0 0 100 100" style="enable-background:new 0 0 100 100;" xml:space="preserve">
<style type="text/css">
	.st0{fill:#FF0000;}
	.st1{fill:#8CC63F;}
	.st2{fill:#FBB03B;}
	.st3{fill:#808080;}
</style>
<path d="M69.4,21.6l9.4,9.4L24.3,85.5l-9.4-9.4L69.4,21.6 M69.4,17.4L10.7,76.1l13.6,13.6L83,31L69.4,17.4L69.4,17.4z"/>
<path d="M83.9,8c0.5,0,1,0.2,1.4,0.6l6.5,6.5c0.4,0.4,0.6,0.9,0.6,1.4c0,0.5-0.2,1-0.6,1.4l-7.3,7.3l-9.4-9.4l7.3-7.3
	C82.9,8.2,83.4,8,83.9,8 M83.9,5c-1.3,0-2.6,0.5-3.5,1.5l-9.4,9.4l13.6,13.6L94,20c1.9-1.9,1.9-5.1,0-7.1l-6.5-6.5
	C86.5,5.5,85.2,5,83.9,5L83.9,5z"/>
<g>
	<polygon points="6.4,90.2 5.6,94.8 10.2,93.9 6.4,90.2 	"/>
	<path d="M10.6,84.3l5.5,5.5l-3.6,0.7l-2.6-2.6L10.6,84.3 M8.7,78.1l-2,10.8l4.8,4.8l10.8-2L8.7,78.1L8.7,78.1z"/>
</g>
</svg>
