<?xml version="1.0" encoding="utf-8"?>
<!-- Generator: Adobe Illustrator 22.1.0, SVG Export Plug-In . SVG Version: 6.00 Build 0)  -->
<svg version="1.1" id="Calque_1" xmlns="http://www.w3.org/2000/svg" xmlns:xlink="http://www.w3.org/1999/xlink" x="0px" y="0px" width="32px" height="32px"
	 viewBox="0 0 100 100" style="enable-background:new 0 0 100 100;" xml:space="preserve">
<style type="text/css">
	.st0{fill:#FF0000;}
	.st1{fill:#8CC63F;}
	.st2{fill:#FBB03B;}
	.st3{fill:#808080;}
</style>
<g id="folder">
	<path d="M81.8,83H9c-0.8,0-1.5-0.7-1.5-1.5V22c0-0.8,0.7-1.5,1.5-1.5h72.8c0.8,0,1.5,0.7,1.5,1.5v15H95c0.5,0,0.9,0.2,1.2,0.6
		c0.3,0.4,0.4,0.9,0.2,1.3L83.2,82C83,82.6,82.4,83,81.8,83z M10.5,80h70.2L93,40H81.8c-0.8,0-1.5-0.7-1.5-1.5v-15H10.5V80z"/>
	<path d="M81.8,83H9c-0.5,0-0.9-0.2-1.2-0.6c-0.3-0.4-0.4-0.9-0.2-1.3l13.2-43c0.2-0.6,0.8-1.1,1.4-1.1H95c0.5,0,0.9,0.2,1.2,0.6
		c0.3,0.4,0.4,0.9,0.2,1.3L83.2,82C83,82.6,82.4,83,81.8,83z M11,80h69.6L93,40H23.3L11,80z"/>
</g>
</svg>
