<?xml version="1.0" encoding="utf-8"?>
<!-- Generator: Adobe Illustrator 22.1.0, SVG Export Plug-In . SVG Version: 6.00 Build 0)  -->
<svg version="1.1" id="Calque_1" xmlns="http://www.w3.org/2000/svg" xmlns:xlink="http://www.w3.org/1999/xlink" x="0px" y="0px" width="32px" height="32px"
	 viewBox="0 0 100 100" style="enable-background:new 0 0 100 100;" xml:space="preserve">
<style type="text/css">
	.st0{fill:#FF0000;}
	.st1{fill:#8CC63F;}
	.st2{fill:#FBB03B;}
	.st3{fill:#808080;}
</style>
<path class="st2" d="M15,91L15,91c-2.2,0-4-1.8-4-4V55c0-2.2,1.8-4,4-4h0c2.2,0,4,1.8,4,4v32C19,89.2,17.2,91,15,91z"/>
<path class="st2" d="M32.5,91.5L32.5,91.5c-2.2,0-4-1.8-4-4v-32c0-2.2,1.8-4,4-4h0c2.2,0,4,1.8,4,4v32
	C36.5,89.7,34.7,91.5,32.5,91.5z"/>
<path class="st2" d="M50,92L50,92c-2.2,0-4-1.8-4-4V56c0-2.2,1.8-4,4-4h0c2.2,0,4,1.8,4,4v32C54,90.2,52.2,92,50,92z"/>
</svg>
