<?xml version="1.0" encoding="utf-8"?>
<!-- Generator: Adobe Illustrator 22.1.0, SVG Export Plug-In . SVG Version: 6.00 Build 0)  -->
<svg version="1.1" xmlns="http://www.w3.org/2000/svg" xmlns:xlink="http://www.w3.org/1999/xlink" x="0px" y="0px"
	 viewBox="0 0 824 175" style="enable-background:new 0 0 824 175;" xml:space="preserve">
<style type="text/css">
	.st0{fill:#3EC8CE;}
	.st1{fill:#4AE5E5;}
	.st2{fill:#FFFFFF;}
	.st3{fill:#0E544A;}
	.st4{fill:#F49600;}
	.st5{fill:#8CC63F;}
	.st6{fill:#9E005D;}
	.st7{fill:none;stroke:#1A1A1A;stroke-miterlimit:10;}
	.st8{opacity:0.9;fill:#FFFFFF;}
	.st9{fill:#333333;}
	.st10{clip-path:url(#SVGID_6_);}
	.st11{display:none;}
	.st12{display:inline;opacity:0.9;fill:#FFFFFF;}
	.st13{fill:none;stroke:#8CC63F;stroke-miterlimit:10;}
	.st14{fill:none;stroke:#B2B2B2;stroke-miterlimit:10;}
	.st15{clip-path:url(#SVGID_10_);}
	.st16{clip-path:url(#SVGID_22_);}
	.st17{fill:none;stroke:#F49600;stroke-miterlimit:10;}
	.st18{fill:#AFAFAF;}
	.st19{fill:none;}
	.st20{font-family:'MyriadPro-Regular';}
	.st21{font-size:12px;}
	.st22{fill:#757575;}
	.st23{fill:#F2F2F2;}
	.st24{fill:#3F3F3F;}
	.st25{fill:#8CC63F;stroke:#8CC63F;stroke-width:2;stroke-miterlimit:10;}
	.st26{fill:#666666;}
	.st27{fill:#1A1A1A;}
	.st28{fill:#808080;}
</style>
<g id="HOME">
	<circle class="st6" cx="413.9" cy="78" r="62"/>
	<circle class="st3" cx="251" cy="78" r="62"/>
	<circle class="st0" cx="88" cy="78" r="62"/>
	<circle class="st5" cx="583" cy="78" r="62"/>
	<circle class="st4" cx="747" cy="78" r="62"/>
</g>
<g id="TABREPERES" class="st11">
</g>
<g id="NAVHOVER" class="st11">
</g>
<g id="COMPETENCE">
</g>
<g id="FORMATIONECOLES">
	<rect x="388.8" y="156.3" class="st19" width="50.3" height="13.7"/>
	<text transform="matrix(1 0 0 1 392.2332 164.8525)" class="st20 st21">#9e005d</text>
	<rect x="225.8" y="156.3" class="st19" width="50.3" height="13.7"/>
	<text transform="matrix(1 0 0 1 229.8083 164.8525)" class="st20 st21">#0e544a</text>
	<rect x="62.8" y="156.3" class="st19" width="50.3" height="13.7"/>
	<text transform="matrix(1 0 0 1 67.4743 164.8525)" class="st20 st21">#3ec8ce</text>
	<rect x="557.8" y="156.3" class="st19" width="50.3" height="13.7"/>
	<text transform="matrix(1 0 0 1 563.5731 164.8525)" class="st20 st21">#8cc63f</text>
	<rect x="721.8" y="156.3" class="st19" width="50.3" height="13.7"/>
	<text transform="matrix(1 0 0 1 726.7933 164.8525)" class="st20 st21">#f49600</text>
</g>
<g id="NFS_1_">
</g>
<g id="Calque_9">
</g>
<g id="Calque_8">
</g>
<g id="REPERES" class="st11">
</g>
</svg>
