<?xml version="1.0" encoding="utf-8"?>
<!-- Generator: Adobe Illustrator 22.1.0, SVG Export Plug-In . SVG Version: 6.00 Build 0)  -->
<svg version="1.1" xmlns="http://www.w3.org/2000/svg" xmlns:xlink="http://www.w3.org/1999/xlink" x="0px" y="0px"
	 viewBox="0 0 48 45" style="enable-background:new 0 0 48 45;" xml:space="preserve">
<style type="text/css">
	.st0{fill:#3EC8CE;}
	.st1{fill:#4AE5E5;}
	.st2{fill:#FFFFFF;}
	.st3{fill:#0E544A;}
	.st4{fill:#F49600;}
	.st5{fill:#8CC63F;}
	.st6{fill:#9E005D;}
	.st7{fill:none;stroke:#1A1A1A;stroke-miterlimit:10;}
	.st8{opacity:0.9;fill:#FFFFFF;}
	.st9{fill:#333333;}
	.st10{clip-path:url(#SVGID_6_);}
	.st11{display:none;}
	.st12{display:inline;opacity:0.9;fill:#FFFFFF;}
	.st13{fill:none;stroke:#8CC63F;stroke-miterlimit:10;}
	.st14{fill:none;stroke:#B2B2B2;stroke-miterlimit:10;}
	.st15{clip-path:url(#SVGID_10_);}
	.st16{clip-path:url(#SVGID_22_);}
	.st17{fill:none;stroke:#F49600;stroke-miterlimit:10;}
	.st18{fill:#AFAFAF;}
	.st19{fill:#757575;}
	.st20{fill:#F2F2F2;}
	.st21{fill:#3F3F3F;}
	.st22{fill:#8CC63F;stroke:#8CC63F;stroke-width:2;stroke-miterlimit:10;}
	.st23{fill:#666666;}
	.st24{fill:#1A1A1A;}
	.st25{fill:#808080;}
</style>
<g id="HOME">
	<g>
		<defs>
			<rect id="SVGID_3_" x="-131" y="-586" width="1953" height="512"/>
		</defs>
		<clipPath id="SVGID_2_">
			<use xlink:href="#SVGID_3_"  style="overflow:visible;"/>
		</clipPath>
	</g>
</g>
<g id="TABREPERES" class="st11">
</g>
<g id="NAVHOVER" class="st11">
</g>
<g id="COMPETENCE">
</g>
<g id="FORMATIONECOLES">
</g>
<g id="NFS_1_">
</g>
<g id="Calque_9">
</g>
<g id="Calque_8">
	<g>
		<path class="st19" d="M23.8,42.1c-11,0-20-9-20-20s9-20,20-20s20,9,20,20S34.8,42.1,23.8,42.1z M23.8,5.5
			C14.6,5.5,7.2,12.9,7.2,22s7.4,16.5,16.5,16.5S40.3,31.1,40.3,22S32.9,5.5,23.8,5.5z"/>
		<g>
			<g>
				<path class="st19" d="M29.6,26.6c-1.9,2.4-5.7,6.3-9,6.3c-2.5,0-3.7-2.9-3.7-5.1c0-5.3,5.4-10.4,8-10.4c0.7,0,1.9,0.3,1.9,1.2
					c0,2.2-4.3,6-6.1,7.2c-0.3,1.8,0.3,2.7,2.3,2.7c2.3,0,4.5-2.3,6.3-3.5L29.6,26.6z M25.5,14.6c0-1.8,2.1-3.3,3.8-3.3
					c0.8,0,1.4,0.6,1.4,1.3c0,1.7-1.6,3.8-3.5,3.8C26.2,16.4,25.5,15.6,25.5,14.6z"/>
			</g>
		</g>
	</g>
</g>
<g id="REPERES" class="st11">
</g>
</svg>
