<?xml version="1.0" encoding="utf-8"?>
<!-- Generator: Adobe Illustrator 22.1.0, SVG Export Plug-In . SVG Version: 6.00 Build 0)  -->
<svg version="1.1" xmlns="http://www.w3.org/2000/svg" xmlns:xlink="http://www.w3.org/1999/xlink" x="0px" y="0px"
	 viewBox="0 0 142 142" style="enable-background:new 0 0 142 142;" xml:space="preserve">
<style type="text/css">
	.st0{fill:#3EC8CE;}
	.st1{fill:#4AE5E5;}
	.st2{fill:#FFFFFF;}
	.st3{fill:#0E544A;}
	.st4{fill:#F49600;}
	.st5{fill:#8CC63F;}
	.st6{fill:#9E005D;}
	.st7{fill:none;stroke:#1A1A1A;stroke-miterlimit:10;}
	.st8{opacity:0.9;fill:#FFFFFF;}
	.st9{fill:#333333;}
	.st10{clip-path:url(#SVGID_6_);}
	.st11{display:none;}
	.st12{display:inline;opacity:0.9;fill:#FFFFFF;}
	.st13{fill:none;stroke:#8CC63F;stroke-miterlimit:10;}
	.st14{fill:none;stroke:#B2B2B2;stroke-miterlimit:10;}
	.st15{clip-path:url(#SVGID_10_);}
	.st16{clip-path:url(#SVGID_22_);}
	.st17{fill:none;stroke:#F49600;stroke-miterlimit:10;}
	.st18{fill:#AFAFAF;}
	.st19{fill:#757575;}
	.st20{fill:#F2F2F2;}
	.st21{fill:#3F3F3F;}
	.st22{fill:#8CC63F;stroke:#8CC63F;stroke-width:2;stroke-miterlimit:10;}
	.st23{fill:#666666;}
	.st24{fill:#1A1A1A;}
	.st25{fill:#808080;}
</style>
<g id="HOME">
	<g>
		
			<rect x="15.4" y="15" transform="matrix(0.1838 -0.983 0.983 0.1838 -11.6496 129.1626)" class="st3" width="113.2" height="113.2"/>
		<path class="st2" d="M59.2,72.3c0,0,0.4,0,1.1,0.1c0.7,0.1,1.8,0.2,3.1,0.2c1.4,0,3,0,4.9-0.2c1-0.1,2-0.3,3-0.6
			c1.1-0.3,2.2-0.6,3.3-1.1c2.2-1,4.4-2.5,6.4-4.6c0.2-0.3,0.5-0.5,0.7-0.8c0.2-0.3,0.5-0.6,0.7-0.9c0.2-0.3,0.4-0.6,0.7-0.9
			l0.1-0.1l0.1-0.1l0.2-0.3c0.1-0.1,0.2-0.3,0.3-0.4c0.4-0.6,0.6-1.2,0.7-1.8c0-0.3,0-0.5,0-0.7c0-0.2-0.1-0.3-0.2-0.4
			c-0.1-0.1-0.2-0.3-0.4-0.4c-0.2-0.1-0.5-0.3-0.8-0.4c-0.6-0.2-1.3-0.3-2.1-0.3c-1.6,0-3.3,0.2-5.1,0.8c-0.9,0.3-1.7,0.6-2.6,1
			c-0.4,0.2-0.9,0.4-1.2,0.6l-0.3,0.2l-0.3,0.2c-0.2,0.1-0.4,0.2-0.6,0.4c-1.6,1-3,2.3-4.4,3.8c-1.3,1.5-2.5,3.2-3.5,5
			c-1,1.8-1.8,3.8-2.3,5.9c-0.3,1-0.5,2.1-0.6,3.1c-0.1,1.1-0.2,2.1-0.1,3.2c0.1,2.1,0.6,4.2,1.5,6.1c0.9,1.9,2.2,3.6,3.9,5.1
			c0.2,0.2,0.4,0.4,0.6,0.5l0.1,0.1c0,0,0,0,0.1,0l0.2,0.1c0.1,0.1,0.3,0.2,0.4,0.3l0.3,0.2l0.4,0.2c0.2,0.1,0.5,0.3,0.7,0.4
			c1,0.6,2,1.1,3.1,1.5c4.4,1.6,9.6,1.7,14.7,0.5c2.6-0.6,5.1-1.4,7.6-2.5c2.5-1.1,4.9-2.5,7.1-4.1c4.5-3.2,8.5-7.3,11.4-12.2
			c1.4-2.4,2.6-5,3.3-7.8c0.7-2.7,1-5.6,0.8-8.3c-0.2-2.8-1-5.5-2.1-8.1c-0.6-1.3-1.3-2.5-2-3.7l-0.3-0.4l-0.1-0.1
			c0,0,0-0.1-0.1-0.1l-0.2-0.2c-0.2-0.3-0.4-0.6-0.6-0.9l-0.6-0.8c-0.2-0.3-0.4-0.5-0.7-0.8c-3.6-4.2-8.5-7.2-13.7-8.9
			C90.5,37.1,85,36.6,79.5,37c-5.4,0.4-10.8,1.8-15.7,3.9c-4.9,2.1-9.4,4.9-13.2,8.4c-1.9,1.7-3.7,3.5-5.2,5.5
			c-0.4,0.5-0.8,1-1.1,1.5c-0.4,0.5-0.7,1-1,1.5c-0.3,0.5-0.7,1-1,1.6l-0.1,0.1c0,0.1,0,0,0,0l-0.1,0.2l-0.2,0.4L41.3,61
			c-0.3,0.5-0.5,1-0.8,1.6c-0.2,0.6-0.5,1.1-0.7,1.7l-0.3,0.8c-0.1,0.3-0.2,0.6-0.3,0.8c-0.2,0.6-0.4,1.1-0.6,1.7
			c-0.7,2.3-1.2,4.6-1.4,6.9c-0.1,1.1-0.2,2.3-0.2,3.4c0,1.1,0.1,2.3,0.2,3.4c0.2,2.2,0.7,4.4,1.3,6.5c0.6,2.1,1.5,4.1,2.5,5.9
			c1,1.8,2.2,3.6,3.4,5.2c2.6,3.2,5.6,5.7,8.9,7.5c3.2,1.9,6.7,3.1,10,3.7c1.7,0.3,3.3,0.5,4.9,0.6c1.6,0.1,3.1,0.1,4.6,0
			c0.7,0,1.5-0.1,2.2-0.2c0.7-0.1,1.4-0.2,2.1-0.3c0.7-0.1,1.3-0.2,2-0.4c0.6-0.1,1.3-0.3,1.9-0.4c4.9-1.2,8.6-2.8,11.1-4
			c0.6-0.3,1.2-0.6,1.6-0.8c0.5-0.2,0.9-0.4,1.2-0.6c0.6-0.3,1-0.5,1-0.5l0.3,0.5c0,0-0.3,0.2-0.9,0.6c-0.3,0.2-0.7,0.5-1.1,0.8
			c-0.4,0.3-1,0.6-1.5,1c-0.6,0.4-1.3,0.8-2,1.2c-0.4,0.2-0.8,0.4-1.2,0.6c-0.4,0.2-0.8,0.5-1.3,0.7c-1.8,0.9-4,1.9-6.4,2.7
			c-2.5,0.9-5.3,1.7-8.5,2.1c-1.6,0.2-3.3,0.4-5,0.4c-1.8,0-3.6-0.1-5.5-0.3c-3.7-0.5-7.7-1.6-11.6-3.5c-3.8-1.9-7.6-4.6-10.8-8.2
			c-1.6-1.8-3.1-3.7-4.3-5.8c-1.3-2.1-2.4-4.4-3.2-6.9c-0.9-2.4-1.5-5-1.8-7.6c-0.2-1.3-0.3-2.7-0.3-4c0-1.4,0-2.7,0.1-4.1
			c0.2-2.7,0.7-5.5,1.5-8.2c0.2-0.7,0.4-1.4,0.6-2c0.1-0.3,0.2-0.7,0.4-1l0.4-1c0.2-0.7,0.6-1.3,0.8-2c0.3-0.7,0.6-1.3,1-2l0.5-0.9
			l0.2-0.4l0.1-0.2l0.1-0.2l0.1-0.1c0.4-0.6,0.7-1.2,1.1-1.8c0.4-0.6,0.8-1.2,1.2-1.8c0.4-0.6,0.9-1.2,1.3-1.7
			c0.9-1.1,1.9-2.2,2.9-3.3c1-1.1,2.1-2.1,3.2-3c9-7.7,20.7-12.4,33-12.9c3.1-0.1,6.2,0,9.2,0.5c1.5,0.2,3.1,0.6,4.6,1
			c1.5,0.4,3,0.9,4.4,1.5c5.8,2.4,11,6.3,14.7,11.3c0.2,0.3,0.5,0.6,0.7,0.9l0.7,1c0.2,0.3,0.4,0.6,0.6,0.9l0.1,0.2l0.1,0.1l0.1,0.1
			l0.3,0.5c0.7,1.4,1.4,2.8,1.9,4.2c1.1,2.9,1.7,6,1.8,9c0.1,3.1-0.3,6.1-1.2,9c-0.8,2.9-2.1,5.7-3.6,8.2c-3,5.1-7,9.5-11.6,13.2
			c-2.3,1.8-4.7,3.5-7.2,4.9c-2.5,1.4-5.2,2.6-7.9,3.5s-5.6,1.5-8.6,1.7c-2.9,0.2-5.9-0.1-8.8-0.9c-1.4-0.4-2.8-1-4.1-1.7
			c-0.3-0.2-0.7-0.4-1-0.5L64,99.7l-0.5-0.3c-0.2-0.1-0.3-0.2-0.4-0.3l-0.2-0.1l-0.1-0.1l-0.1-0.1c-0.3-0.2-0.6-0.4-0.9-0.7
			c-0.6-0.5-1.1-1-1.7-1.5c-0.5-0.5-1-1.1-1.5-1.7c-0.9-1.2-1.7-2.4-2.3-3.8c-1.3-2.7-1.9-5.5-2-8.3c-0.1-2.8,0.3-5.5,1-8
			c1.4-5.1,4.1-9.5,7.5-12.9c1.7-1.7,3.6-3.2,5.6-4.4c0.3-0.1,0.5-0.3,0.8-0.4l0.4-0.2l0.4-0.2c0.5-0.3,1-0.5,1.6-0.7
			c1.1-0.4,2.1-0.8,3.2-1.1c2.1-0.5,4.3-0.8,6.6-0.6c1.1,0.1,2.2,0.3,3.4,0.8c0.6,0.2,1.1,0.5,1.7,0.9c0.5,0.4,1,0.9,1.4,1.6
			c0.4,0.6,0.6,1.4,0.7,2.1c0.1,0.7,0,1.4-0.2,1.9c-0.3,1.2-0.8,2.1-1.3,2.9c-0.1,0.2-0.3,0.4-0.4,0.6l-0.2,0.2l-0.1,0.1L86,65.5
			c-0.3,0.3-0.6,0.7-0.8,1c-0.3,0.3-0.6,0.6-0.9,0.9c-0.3,0.3-0.6,0.6-0.9,0.9c-2.5,2.3-5.2,3.7-7.8,4.6c-2.6,0.9-5,1.2-7.1,1.2
			c-2.1,0-3.8-0.1-5.2-0.4c-1.4-0.2-2.4-0.4-3.1-0.6c-0.7-0.2-1.1-0.3-1.1-0.3L59.2,72.3z"/>
	</g>
</g>
<g id="TABREPERES" class="st11">
</g>
<g id="NAVHOVER" class="st11">
</g>
<g id="COMPETENCE">
</g>
<g id="FORMATIONECOLES">
</g>
<g id="NFS_1_">
</g>
<g id="Calque_9">
</g>
<g id="Calque_8">
</g>
<g id="REPERES" class="st11">
</g>
</svg>
