<?xml version="1.0" encoding="utf-8"?>
<!-- Generator: Adobe Illustrator 22.1.0, SVG Export Plug-In . SVG Version: 6.00 Build 0)  -->
<svg version="1.1" id="Calque_1" xmlns="http://www.w3.org/2000/svg" xmlns:xlink="http://www.w3.org/1999/xlink" x="0px" y="0px" width="18px" height="18px"
	 viewBox="0 0 32 32" enable-background="new 0 0 32 32" xml:space="preserve">
<style type="text/css">
	.st0{fill:#8CC63F;}
</style>
<path class="st0" d="M0.9,18L0.9,18C0.4,18,0,17.2,0,16.2V1.9c0-1,0.4-1.8,0.9-1.8l0,0c0.5,0,0.9,0.8,0.9,1.8v14.3
	C1.9,17.2,1.4,18,0.9,18z"/>
<path class="st0" d="M5,18L5,18c-0.5,0-0.9-0.8-0.9-1.8V1.9c0-1,0.4-1.8,0.9-1.8l0,0c0.5,0,0.9,0.8,0.9,1.8v14.3
	C5.9,17.2,5.5,18,5,18z"/>
<path class="st0" d="M9.1,18L9.1,18c-0.5,0-0.9-0.8-0.9-1.8V1.9c0-1,0.4-1.8,0.9-1.8l0,0c0.5,0,0.9,0.8,0.9,1.8v14.3
	C10,17.2,9.6,18,9.1,18z"/>
<path class="st0" d="M13.1,18L13.1,18c-0.5,0-0.9-0.8-0.9-1.8V1.9c0-1,0.4-1.8,0.9-1.8l0,0c0.5,0,0.9,0.8,0.9,1.8v14.3
	C14.1,17.2,13.6,18,13.1,18z"/>
<path class="st0" d="M17.1,17.9L17.1,17.9c-0.5,0-0.9-0.8-0.9-1.8V1.8c0-1,0.4-1.8,0.9-1.8l0,0C17.6,0,18,0.8,18,1.8v14.3
	C18,17.1,17.6,17.9,17.1,17.9z"/>
</svg>
