<?xml version="1.0" encoding="utf-8"?>
<!-- Generator: Adobe Illustrator 22.1.0, SVG Export Plug-In . SVG Version: 6.00 Build 0)  -->
<svg version="1.1" id="Calque_1" xmlns="http://www.w3.org/2000/svg" xmlns:xlink="http://www.w3.org/1999/xlink" x="0px" y="0px" width="18px" height="18px"
	 viewBox="0 0 32 32" enable-background="new 0 0 32 32" xml:space="preserve">
<style type="text/css">
	.st0{fill:#FF0000;}
</style>
<path class="st0" d="M1.2,18L1.2,18c-0.5,0-0.9-0.8-0.9-1.8V1.9c0-1,0.4-1.8,0.9-1.8l0,0c0.5,0,0.9,0.8,0.9,1.8v14.3
	C2.1,17.2,1.7,18,1.2,18z"/>
<path class="st0" d="M5.2,18L5.2,18c-0.5,0-0.9-0.8-0.9-1.8V1.9c0-1,0.4-1.8,0.9-1.8l0,0c0.5,0,0.9,0.8,0.9,1.8v14.3
	C6.1,17.2,5.7,18,5.2,18z"/>
<path class="st0" d="M9.2,18L9.2,18c-0.5,0-0.9-0.8-0.9-1.8V1.9c0-1,0.4-1.8,0.9-1.8l0,0c0.5,0,0.9,0.8,0.9,1.8v14.3
	C10.1,17.2,9.7,18,9.2,18z"/>
<path class="st0" d="M13.2,18L13.2,18c-0.5,0-0.9-0.8-0.9-1.8V1.9c0-1,0.4-1.8,0.9-1.8l0,0c0.5,0,0.9,0.8,0.9,1.8v14.3
	C14.1,17.2,13.7,18,13.2,18z"/>
<path class="st0" d="M17.1,17.9L17.1,17.9c-0.5,0-0.9-0.8-0.9-1.8V1.8c0-1,0.4-1.8,0.9-1.8l0,0C17.6,0,18,0.8,18,1.8v14.3
	C18,17.1,17.6,17.9,17.1,17.9z"/>
</svg>
