<?xml version="1.0" encoding="utf-8"?>
<!-- Generator: Adobe Illustrator 22.1.0, SVG Export Plug-In . SVG Version: 6.00 Build 0)  -->
<svg version="1.1" id="Calque_1" xmlns="http://www.w3.org/2000/svg" xmlns:xlink="http://www.w3.org/1999/xlink" x="0px" y="0px" width="18px" height="18px"
	 viewBox="0 0 32 32" enable-background="new 0 0 32 32" xml:space="preserve">
<style type="text/css">
	.st0{fill:#FBB03B;}
</style>
<path class="st0" d="M1.7,17.6L1.7,17.6c-0.9,0-1.7-0.8-1.7-1.8v-14C0,0.8,0.8,0,1.7,0l0,0c0.9,0,1.7,0.8,1.7,1.8v14
	C3.3,16.8,2.6,17.6,1.7,17.6z"/>
<path class="st0" d="M9,17.8L9,17.8c-0.9,0-1.7-0.8-1.7-1.8V2c0-1,0.8-1.8,1.7-1.8l0,0c0.9,0,1.7,0.8,1.7,1.8v14
	C10.7,17,9.9,17.8,9,17.8z"/>
<path class="st0" d="M16.3,18L16.3,18c-0.9,0-1.7-0.8-1.7-1.8v-14c0-1,0.8-1.8,1.7-1.8l0,0c0.9,0,1.7,0.8,1.7,1.8v14
	C18,17.2,17.2,18,16.3,18z"/>
</svg>
