<?xml version="1.0" encoding="utf-8"?>
<!-- Generator: Adobe Illustrator 22.1.0, SVG Export Plug-In . SVG Version: 6.00 Build 0)  -->
<svg version="1.1" id="Calque_1" xmlns="http://www.w3.org/2000/svg" xmlns:xlink="http://www.w3.org/1999/xlink" x="0px" y="0px" width="32px" height="32px"
	 viewBox="0 0 100 100" style="enable-background:new 0 0 100 100;" xml:space="preserve">
<style type="text/css">
	.st0{fill:#FF0000;}
	.st1{fill:#8CC63F;}
	.st2{fill:#FBB03B;}
	.st3{fill:#808080;}
</style>
<path d="M84.5,62.5h-70c-4.4,0-8-3.6-8-8v-38c0-4.4,3.6-8,8-8h70c4.4,0,8,3.6,8,8v38C92.5,58.9,88.9,62.5,84.5,62.5z M14.5,11.5
	c-2.8,0-5,2.2-5,5v38c0,2.8,2.2,5,5,5h70c2.8,0,5-2.2,5-5v-38c0-2.8-2.2-5-5-5H14.5z"/>
<path d="M27.5,93c-0.2,0-0.4,0-0.7-0.1c-0.7-0.4-1.1-1.3-0.7-2l14.7-30.5c0.4-0.7,1.3-1.1,2-0.7c0.7,0.4,1.1,1.3,0.7,2L28.9,92.2
	C28.6,92.7,28.1,93,27.5,93z"/>
<path d="M71,93c-0.6,0-1.1-0.3-1.4-0.8L54.9,61.7c-0.4-0.7,0-1.6,0.7-2c0.7-0.4,1.6,0,2,0.7l14.7,30.5c0.4,0.7,0,1.6-0.7,2
	C71.4,93,71.2,93,71,93z"/>
<path d="M59.5,70h-21c-0.8,0-1.5-0.7-1.5-1.5s0.7-1.5,1.5-1.5h21c0.8,0,1.5,0.7,1.5,1.5S60.3,70,59.5,70z"/>
</svg>
