<?xml version="1.0" encoding="utf-8"?>
<!-- Generator: Adobe Illustrator 22.1.0, SVG Export Plug-In . SVG Version: 6.00 Build 0)  -->
<svg version="1.1" id="Calque_1" xmlns="http://www.w3.org/2000/svg" xmlns:xlink="http://www.w3.org/1999/xlink" x="0px" y="0px" width="32px" height="32px"
	 viewBox="0 0 100 100" style="enable-background:new 0 0 100 100;" xml:space="preserve">
<style type="text/css">
	.st0{fill:#FF0000;}
	.st1{fill:#8CC63F;}
	.st2{fill:#FBB03B;}
	.st3{fill:#808080;}
</style>
<g>
	<path d="M75.7,24.1L51.1,7.8c-0.1-0.1-0.2-0.1-0.3-0.2c0,0-0.1,0-0.1,0c-0.1,0-0.1,0-0.2-0.1c-0.1,0-0.1,0-0.2,0c0,0-0.1,0-0.1,0h0
		c0,0,0,0,0,0H25.7c-0.8,0-1.5,0.7-1.5,1.5v71c0,0.8,0.7,1.5,1.5,1.5h34.2l0-3H27.2v-68h21.6v14.9c0,0.8,0.7,1.5,1.5,1.5h23.1v51.6
		h-6.5l0,3h8c0.8,0,1.5-0.7,1.5-1.5V25.4C76.3,24.9,76.1,24.4,75.7,24.1z M51.8,11.8l18.1,12.1H51.8V11.8z"/>
	<path d="M36.6,48.7h13.7c0.8,0,1.5-0.7,1.5-1.5s-0.7-1.5-1.5-1.5H36.6c-0.8,0-1.5,0.7-1.5,1.5S35.8,48.7,36.6,48.7z"/>
	<path d="M36.6,59.7h24.6c0.8,0,1.5-0.7,1.5-1.5s-0.7-1.5-1.5-1.5H36.6c-0.8,0-1.5,0.7-1.5,1.5S35.8,59.7,36.6,59.7z"/>
	<path d="M36.6,38.8h24.6c0.8,0,1.5-0.7,1.5-1.5s-0.7-1.5-1.5-1.5H36.6c-0.8,0-1.5,0.7-1.5,1.5S35.8,38.8,36.6,38.8z"/>
	<path d="M72.6,85.8c-0.2-0.1-0.4-0.1-0.6-0.1c-0.3,0-0.7,0.1-1,0.3l-6,4.9l-0.1-9.4l0-3L64.7,67c0-0.8-0.7-1.5-1.5-1.5
		c-0.8,0-1.5,0.7-1.5,1.5l0.2,11.5l0,3l0.1,9.4l-6-4.7c-0.3-0.2-0.6-0.3-0.9-0.3c-0.5,0-0.9,0.2-1.2,0.6c-0.5,0.7-0.4,1.6,0.3,2.1
		l8.5,6.7c0,0,0,0,0,0c0,0,0,0,0,0c0.1,0,0.1,0.1,0.2,0.1c0,0,0.1,0,0.1,0c0,0,0.1,0,0.1,0c0,0,0,0,0.1,0c0,0,0,0,0.1,0
		c0,0,0,0,0.1,0c0.1,0,0.2,0,0.3,0c0,0,0,0,0,0c0.2,0,0.3,0,0.4-0.1c0,0,0.1,0,0.1,0c0,0,0.1,0,0.1,0c0,0,0.1,0,0.1,0
		c0.1,0,0.1-0.1,0.2-0.1c0,0,0,0,0,0h0l8.4-6.8c0.6-0.5,0.7-1.5,0.2-2.1C73,86,72.8,85.9,72.6,85.8z"/>
</g>
</svg>
