<?xml version="1.0" encoding="utf-8"?>
<!-- Generator: Adobe Illustrator 22.1.0, SVG Export Plug-In . SVG Version: 6.00 Build 0)  -->
<svg version="1.1" id="Calque_1" xmlns="http://www.w3.org/2000/svg" xmlns:xlink="http://www.w3.org/1999/xlink" x="0px" y="0px" width="32px" height="32px"
	 viewBox="0 0 100 100" style="enable-background:new 0 0 100 100;" xml:space="preserve">
<style type="text/css">
	.st0{fill:#FF0000;}
	.st1{fill:#8CC63F;}
	.st2{fill:#FBB03B;}
	.st3{fill:#808080;}
</style>
<g>
	<g>
		<path d="M90.9,23.5H66.4c-7.9,0-13.5,5.2-16,8.3L50,32.2l-0.4-0.5c-2.6-3.1-8.1-8.3-16-8.3H9.1c-0.9,0-1.5,0.7-1.5,1.5v28
			c0,0.8,0.7,1.5,1.5,1.5c0.8,0,1.5-0.7,1.5-1.5V26.6h23c8,0,13.3,6.6,14.8,8.6l0.1,0.1V78l-0.8-0.7c-3.9-3.2-10.5-5.5-19.6-6.7
			c-7-1-13.6-1-16.9-1l-0.5,0v-6.9c0-0.8-0.7-1.5-1.5-1.5c-0.9,0-1.5,0.7-1.5,1.5V83c0,0.9,0.7,1.5,1.5,1.5h81.8
			c0.9,0,1.5-0.7,1.5-1.5V25C92.5,24.2,91.8,23.5,90.9,23.5z M10.6,81.4v-8.8h0.5c3.3,0,9.8,0.1,16.5,1c9.3,1.3,15.9,3.7,19.1,7
			l0.8,0.8H10.6z M89.4,81.4H52.5l0.8-0.8c7-7.4,28.4-8,34.8-8h1.3V81.4z M89.4,69.6l-1.3,0c-4.4,0-13.1,0.3-21.1,1.9
			c-6.5,1.3-11.4,3.3-14.6,5.9L51.5,78V35.3l0.1-0.1c1.4-2,6.7-8.6,14.8-8.6h23V69.6z"/>
	</g>
	<g>
		<path d="M81.5,36.1c0,0.8-0.7,1.5-1.5,1.5H65.6c-0.8,0-1.5-0.7-1.5-1.5s0.7-1.5,1.5-1.5H80C80.8,34.6,81.5,35.3,81.5,36.1z"/>
	</g>
	<g>
		<path d="M81.5,48.4c0,0.8-0.7,1.5-1.5,1.5H65.6c-0.8,0-1.5-0.7-1.5-1.5s0.7-1.5,1.5-1.5H80C80.8,46.8,81.5,47.5,81.5,48.4z"/>
	</g>
	<g>
		<path d="M81.5,60.6c0,0.8-0.7,1.5-1.5,1.5H65.6c-0.8,0-1.5-0.7-1.5-1.5c0-0.8,0.7-1.5,1.5-1.5H80C80.8,59.1,81.5,59.8,81.5,60.6z"
			/>
	</g>
	<g>
		<path d="M36,36.1c0,0.8-0.7,1.5-1.5,1.5H20c-0.8,0-1.5-0.7-1.5-1.5s0.7-1.5,1.5-1.5h14.4C35.3,34.6,36,35.3,36,36.1z"/>
	</g>
	<g>
		<path d="M36,48.4c0,0.8-0.7,1.5-1.5,1.5H20c-0.8,0-1.5-0.7-1.5-1.5s0.7-1.5,1.5-1.5h14.4C35.3,46.8,36,47.5,36,48.4z"/>
	</g>
	<g>
		<path d="M36,60.6c0,0.8-0.7,1.5-1.5,1.5H20c-0.8,0-1.5-0.7-1.5-1.5c0-0.8,0.7-1.5,1.5-1.5h14.4C35.3,59.1,36,59.8,36,60.6z"/>
	</g>
</g>
</svg>
