<?xml version="1.0" encoding="utf-8"?>
<!-- Generator: Adobe Illustrator 22.1.0, SVG Export Plug-In . SVG Version: 6.00 Build 0)  -->
<svg version="1.1" id="Calque_1" xmlns="http://www.w3.org/2000/svg" xmlns:xlink="http://www.w3.org/1999/xlink" x="0px" y="0px" width="32px" height="32px"
	 viewBox="0 0 34.5 32" style="enable-background:new 0 0 34.5 32;" xml:space="preserve">
<style type="text/css">
	.st0{display:none;}
	.st1{display:inline;fill:#435264;}
	.st2{display:inline;fill:none;}
	.st3{display:inline;fill:#7F98C2;}
	.st4{display:inline;fill:#FEFEFE;}
	.st5{display:inline;}
	.st6{fill:#435264;}
	.st7{display:inline;fill:none;stroke:#435264;stroke-width:1.1533;stroke-miterlimit:10;}
	.st8{fill:#435264;stroke:#435264;stroke-width:0.5;stroke-miterlimit:10;}
</style>
<g id="Calque_1_1_" class="st0">
	<path class="st1" d="M25.4,31.8c-1.1,0-2.2,0.1-3.2,0c-1.8,0-3.5-0.1-5.3-0.2c-0.6,0-1.2-0.1-1.9-0.2c-0.3-0.1-0.5,0.1-0.6,0.4
		c-0.1,0.3-0.1,0.3-0.4,0.3c-0.8,0-1.5,0-2.3,0c-0.5,0-0.7-0.1-0.7-0.6c0-0.3-0.2-0.6-0.5-0.7c-0.6-0.1-0.8-0.6-1-1.1
		c-0.3-0.8-0.3-1.7-0.4-2.5c-0.1-1-0.1-2,0-3.1c0.2-1.6,0.6-3.2,1.2-4.7c0.2-0.5,0.4-0.9,0.6-1.4c0.2,0.1,0.4,0.3,0.5,0.5
		c0,0.1,0,0.1,0,0.2c-0.1,0.1-0.1,0.1-0.2,0c-0.1-0.1-0.2-0.2-0.1-0.3c0,0,0.1-0.1,0-0.1s-0.1,0-0.1,0.1c-0.1,0.1-0.1,0.3,0.1,0.4
		c0.1,0.1,0.3,0.2,0.4,0.1c0.1-0.1,0.2-0.2,0.1-0.4c-0.1-0.2-0.3-0.4-0.6-0.5c0.3-0.8,0.8-1.6,1.2-2.5c0.7-1.4,1.5-2.8,2.3-4.1
		c0.3-0.6,0.4-1.2,0.6-1.8c0.1-0.4,0.2-0.9,0.4-1.4c0.2-0.4,0.5-0.6,1-0.7c0.4,0,0.9-0.1,1.3,0c0.4,0.1,0.6,0.3,0.7,0.7
		c0.1,0.5,0.2,1.1,0.3,1.6c0,0.2,0.1,0.2,0.3,0.2c2.4-0.1,4.7-0.1,7.1-0.1c0.4,0,0.8,0,1.2,0.1c0.1,0,0.2,0,0.2-0.2
		c0.1-0.6,0.2-1.1,0.4-1.7c0.1-0.3,0.3-0.6,0.6-0.6c0.5-0.1,1.1-0.1,1.6,0s0.7,0.5,0.9,0.9c0.2,0.6,0.3,1.2,0.5,1.8
		c0.1,0.5,0.3,1,0.6,1.5c1.5,2.5,2.9,5,3.9,7.7c0.9,2.3,1.4,4.6,1.2,7.1c-0.1,1.1-0.1,2.2-0.5,3.3c-0.2,0.5-0.4,0.9-1,1.1
		c-0.3,0.1-0.5,0.3-0.5,0.6c-0.1,0.6-0.2,0.7-0.8,0.7c-0.7,0-1.5,0-2.2,0c-0.4,0-0.4,0-0.5-0.4c-0.1-0.3-0.2-0.4-0.6-0.4
		c-1.6,0.2-3.2,0.3-4.8,0.3c-0.2,0-0.3,0-0.5,0c0-0.1-0.1-0.2,0.1-0.3c0.1,0,0,0.2,0.1,0.2s0.1-0.2,0-0.3c0-0.1-0.1-0.1-0.2,0
		c-0.2,0.1-0.2,0.3-0.1,0.5c-0.1,0-0.2,0-0.2,0C25.5,31.8,25.5,31.8,25.4,31.8z M12.2,31c0.2,0.6,1.1,0.9,1.8,0.6
		c0.5-0.3,0.8-0.7,0.8-1.3c0.1,0,0.2,0,0.3,0c0,0.4-0.1,0.7-0.3,1c0,0,0,0.1,0,0.2c0.1,0,0.1,0,0.2-0.1c0.3-0.3,0.4-0.6,0.4-1
		c0.1,0,0.2,0,0.3,0c1.9,0.2,3.8,0.3,5.6,0.3c2.3,0.1,4.5,0,6.8-0.1c0.9-0.1,1.9-0.1,2.8-0.3c0.5-0.1,1,0,1.4,0.4
		c0.3,0.4,0.6,0.4,1,0.4c0.2,0,0.4,0,0.5,0s0.2,0,0.2-0.2c0.2-0.4,0.4-0.8,0.8-0.9c0.5-0.2,0.6-0.5,0.7-0.9c0-0.1,0-0.2,0.1-0.3
		c0.1-0.6,0.1-1.2,0.2-1.8c0.1-1.1,0.1-2.2-0.1-3.3c-0.3-1.7-0.8-3.3-1.5-4.9c-0.9-2.1-2.1-4.2-3.2-6.2c-0.3-0.5-0.6-1-0.8-1.6
		c-0.1-0.6-0.3-1.1-0.4-1.7c-0.2-0.6,0-0.5-0.7-0.5c-0.1,0-0.2,0-0.2,0.2c-0.1,0.7-0.3,1.5-0.5,2.2c0,0.2-0.1,0.3-0.3,0.2
		c-1.3-0.1-2.7-0.1-4-0.2c-2.1,0-4.1,0-6.2,0.2c-0.2,0-0.2,0-0.2-0.2c-0.1-0.7-0.3-1.3-0.4-2c-0.1-0.5-0.1-0.5-0.6-0.5
		c-0.2,0-0.3,0.1-0.3,0.3c-0.1,0.6-0.3,1.3-0.5,1.9c-0.1,0.3-0.2,0.6-0.3,0.9c-0.4,0.7-0.9,1.5-1.3,2.2c-0.5,0.9-1,1.9-1.5,2.8
		c-0.4,0-0.5,0.1-0.5,0.4c0,0.1,0.1,0.2,0.2,0.2c-0.1,0.2-0.2,0.3-0.2,0.5c-0.1,0-0.3,0-0.3-0.1s-0.1-0.2,0.1-0.2
		c0.1,0,0,0.1,0.1,0.2c0,0.1,0.1,0.1,0.1,0s0.1-0.2,0-0.3c-0.1-0.1-0.2,0-0.3,0.1s-0.1,0.2-0.1,0.4c0,0,0.1,0,0.3,0
		c0,0.2-0.2,0.4-0.3,0.6c-0.3,0.7-0.6,1.4-0.9,2.2c-0.7,2-1,4-0.8,6.1c0.1,0.9,0.1,1.8,0.4,2.6c0,0.1,0.1,0.2,0.3,0.3
		c0.5,0.2,0.9,0.4,1.1,0.9C12.1,30.8,12.1,30.9,12.2,31z M26.9,31.2c-0.1,0-0.1,0-0.2,0c-0.1,0-0.2,0-0.3-0.1c0-0.1,0-0.2,0-0.2
		c0.1-0.1,0.2,0,0.3,0c0.1,0.1,0.1,0.1,0.2,0.2H27c0,0,0,0,0-0.1c-0.1-0.1-0.2-0.3-0.4-0.3s-0.3,0.1-0.3,0.2c0,0.2,0.1,0.4,0.3,0.4
		C26.7,31.4,26.9,31.4,26.9,31.2z M11.8,18.5c0-0.1-0.1-0.2-0.2-0.3c-0.1-0.1-0.1-0.1-0.1-0.2s0.1-0.1,0-0.1S11.4,18,11.4,18
		C11.4,18.2,11.6,18.4,11.8,18.5z"/>
	<path class="st1" d="M12.6,1.7c0.5-0.2,1.1-0.3,1.6-0.4c0.2,0.2,0.4,0.3,0.6,0.5C14.9,2,15,2.2,15.1,2.3c-0.1,0-0.2,0.1-0.4,0.1
		c-0.3-0.8-1.1-1.1-1.7-0.6c-0.3,0.3-0.3,0.7-0.1,1c-0.1,0.1-0.3,0.1-0.4,0.1c-0.1-0.2-0.1-0.5-0.1-0.7C12.4,2,12.6,1.8,12.6,1.7z"
		/>
	<path class="st1" d="M12.6,1.7c0,0.2-0.2,0.4-0.2,0.6s0,0.5,0.1,0.7c-0.1,0-0.3,0-0.4,0.1c-0.2-0.4-0.2-0.8-0.1-1.2
		C12.2,1.7,12.4,1.7,12.6,1.7z"/>
	<path class="st1" d="M15.1,2.3c-0.2-0.2-0.2-0.4-0.3-0.5c-0.2-0.2-0.4-0.3-0.6-0.5c0.2-0.1,0.4-0.1,0.6-0.1
		c0.3,0.3,0.6,0.6,0.6,1.1C15.2,2.3,15.2,2.3,15.1,2.3z"/>
	<path class="st1" d="M10.9,18c0.2,0.1,0.4,0.3,0.6,0.5c0.1,0.2,0,0.3-0.1,0.4c-0.2,0.1-0.3,0-0.4-0.1c-0.1-0.1-0.2-0.2-0.1-0.4
		l0.1-0.1c0.1,0,0,0.1,0,0.1c-0.1,0.2,0,0.2,0.1,0.3c0.1,0,0.1,0,0.2,0c0.1-0.1,0.1-0.1,0-0.2c-0.1-0.2-0.3-0.4-0.5-0.5
		C10.8,18.1,10.8,18.1,10.9,18z"/>
	<path class="st1" d="M25.8,31.8c-0.1-0.2-0.1-0.4,0.1-0.5c0.1,0,0.2-0.1,0.2,0s0.1,0.3,0,0.3C26,31.7,26,31.5,26,31.4
		c-0.1,0.1,0,0.2-0.1,0.3C25.9,31.9,25.8,31.8,25.8,31.8z"/>
	<path class="st1" d="M25.4,31.8L25.4,31.8C25.5,31.8,25.5,31.8,25.4,31.8z"/>
	<path class="st1" d="M12.2,31c0.2,0,0.4,0,0.6,0c0.2,0.3,0.6,0.4,1,0.3s0.6-0.4,0.6-0.7c0-0.1,0-0.2,0-0.3c0.1-0.1,0.2-0.1,0.4-0.1
		c0.1,0.6-0.2,1.1-0.8,1.3C13.3,31.9,12.4,31.6,12.2,31z"/>
	<path class="st1" d="M15,30.2c0.1,0,0.2,0,0.3,0c0,0.4-0.2,0.7-0.4,1c0,0-0.1,0.1-0.2,0.1c0,0,0-0.1,0-0.2
		C14.9,30.9,15.1,30.6,15,30.2z"/>
	<path class="st1" d="M26.9,31.2c0,0.2-0.1,0.2-0.3,0.2s-0.3-0.2-0.3-0.4c0-0.2,0.1-0.3,0.3-0.2c0.2,0,0.3,0.2,0.4,0.3
		c0,0,0,0,0,0.1H26.9c-0.1-0.1-0.1-0.1-0.2-0.2c-0.1-0.1-0.2-0.1-0.3,0s-0.1,0.2,0,0.2c0,0.1,0.2,0.1,0.3,0.1
		C26.8,31.2,26.8,31.2,26.9,31.2z"/>
	<path class="st1" d="M12.3,17.9c0,0.1,0,0.1,0,0.1c-0.2,0-0.3,0-0.4-0.2c-0.1-0.1-0.1-0.3,0.1-0.4c0.1-0.1,0.2-0.2,0.3-0.1
		s0.1,0.2,0,0.3c0,0.1-0.1,0-0.1,0s0-0.1-0.1-0.2C12,17.5,12,17.6,12,17.6C12,17.9,12.1,17.9,12.3,17.9z"/>
	<path class="st1" d="M12.5,17.3v0.1c0-0.1-0.1-0.1-0.2-0.2c0-0.3,0.1-0.4,0.5-0.4c0,0,0,0.1-0.1,0.1C12.5,16.9,12.4,17,12.5,17.3z"
		/>
	<path class="st1" d="M11.8,18.5c-0.2-0.1-0.5-0.3-0.4-0.5c0-0.1,0-0.2,0.1-0.1c0.1,0,0,0.1,0,0.1c0,0.1,0,0.2,0.1,0.2
		C11.7,18.3,11.8,18.3,11.8,18.5z"/>
	<path class="st2" d="M28.7,1.2c-0.1,0,0,0.1,0,0.1c0,0.1,0,0.1,0,0.2c-0.1,0-0.1,0-0.2-0.1c-0.1-0.1-0.1-0.2,0-0.3
		c0,0,0.1-0.1,0.1-0.2c-0.1-0.1-0.1,0-0.2,0C28.3,1,28.3,1.1,28.1,1c0,0-0.1,0-0.1,0.1s0.5,0.5,0.5,0.5c0.1,0,0.2,0,0.3-0.1
		S28.8,1.3,28.7,1.2L28.7,1.2z"/>
	<path class="st2" d="M28,1.8C28,1.7,28,1.7,28,1.8c0-0.1,0.1-0.3,0-0.3s-0.1,0.1-0.2,0.2l0,0c-0.5,0-1-0.1-1.4-0.1
		c0.5,0,1,0.1,1.4,0.1C27.8,1.7,27.9,1.8,28,1.8z"/>
	<path class="st1" d="M26,3.5c-0.1,0.1-0.3,0.2-0.3,0.3s0.1,0.2,0.2,0.3C26,4.2,26.2,4.2,26.3,4c0.1-0.1,0.2-0.1,0.1-0.2
		c-0.1-0.1-0.1,0.1-0.2,0.1l0,0C26.1,4,26,4,25.9,3.9S25.8,3.7,26,3.5c0,0.2-0.1,0.3,0,0.3S26.1,3.7,26,3.5c0.1,0,0.1,0,0.1-0.1
		C26.1,3.5,26,3.5,26,3.5z"/>
	<path class="st2" d="M28.7,0.7c0,0.1,0.3,0.5,0.4,0.5h0.1V1.1C29,1,28.9,0.8,28.7,0.7z"/>
	<path class="st1" d="M41.9,7.9c-0.5-1.8-1.6-3.2-3.1-4.2c-1.1-0.7-2.3-1.2-3.6-1.6c-2.1-0.7-4.3-1.2-6.5-1.5
		c-1.6-0.2-3.2-0.4-4.9-0.4c-2.1,0-4.2,0.1-6.3,0.4c-0.9,0.1-1.8,0.3-2.8,0.5c0.3,0.3,0.6,0.6,0.6,1.1h0.1l0,0
		C16.7,2,18,1.8,19.2,1.6c2.4-0.2,4.7-0.2,7.1,0c0.5,0,1,0.1,1.4,0.1l0,0c0-0.1,0.1-0.3,0.2-0.2c0.1,0,0,0.2,0,0.2l0,0
		c0.8,0.1,1.5,0.2,2.3,0.4c1.7,0.3,3.4,0.8,5,1.4c0.9,0.3,1.8,0.7,2.7,1.3c1.7,1,2.6,2.5,2.9,4.4c0,0.2,0,0.5,0,0.7
		c0,0.5-0.4,0.6-0.7,0.7c-0.7,0.2-1.5,0.2-2.2,0.2c-1.2,0-2.5-0.2-3.6-0.7c-0.2-0.1-0.4-0.2-0.5-0.4c-0.3-0.5-0.5-1.1-0.6-1.7
		c-0.4-1.1-1-2-2-2.7c-1.1-0.8-2.4-1.3-3.8-1.6c-0.1,0-0.3-0.1-0.4-0.1c-0.3-0.1-0.6-0.1-0.9-0.1l0,0c0,0.1,0,0.1,0,0.2
		c0,0.1,0.1,0.2-0.1,0.2c-0.1,0,0-0.1-0.1-0.2c-0.1,0.1-0.1,0.2,0,0.3c0.1,0.1,0.2,0,0.3,0l0,0c0.1,0,0.1-0.2,0.2-0.1
		c0.1,0.1-0.1,0.2-0.1,0.2c-0.1,0.1-0.2,0.1-0.4,0.1c-0.1-0.1-0.2-0.2-0.2-0.3c0-0.2,0.1-0.3,0.3-0.3c-1.2-0.2-2.3-0.1-3.5-0.1
		c-1,0-2,0-2.9,0.2c-1.3,0.2-2.5,0.5-3.7,1.1s-2.1,1.5-2.7,2.7C13,8,12.8,8.5,12.7,9c-0.4,1.2-0.4,1.1-1.5,1.4
		c-1.5,0.4-3,0.5-4.5,0.4c-0.4,0-0.7-0.1-1-0.3c-0.2-0.1-0.3-0.2-0.3-0.5c-0.1-0.6,0-1.2,0.2-1.7C6,6.7,7,5.6,8.4,4.8
		c1-0.6,2.2-1,3.3-1.4c0.2-0.1,0.4-0.1,0.5-0.2C12,2.8,12,2.4,12.1,2c-1.6,0.5-3.2,1.1-4.6,2S5,6.1,4.5,7.8
		c-0.2,0.8-0.4,1.5-0.3,2.3s0.4,1.3,1.2,1.6C5.8,11.9,6.2,12,6.6,12c2,0.2,3.9,0.1,5.8-0.6c0.6-0.2,1.1-0.6,1.3-1.2
		C14,9.6,14.2,9,14.4,8.4c0.3-1,1-1.8,1.9-2.3c1-0.6,2-0.9,3.1-1.1c0.9-0.2,1.8-0.2,2.7-0.2c1.2,0,2.5-0.1,3.7,0.1
		c0-0.1-0.1-0.2-0.2-0.3c-0.1-0.1-0.1-0.1-0.1-0.2s0-0.2,0.1-0.2s0,0.1,0,0.2s0.1,0.2,0.2,0.3C25.9,4.8,26,4.8,25.9,5
		c1.3,0.1,2.6,0.4,3.8,1c1,0.5,1.8,1.1,2.2,2.2C32,8.4,32.2,9,32.4,9.6c0.1,0.4,0.3,0.7,0.5,1c0.4,0.5,1,0.7,1.5,0.8
		c1.4,0.4,2.9,0.6,4.4,0.5c0.6,0,1.2-0.1,1.7-0.3c1-0.3,1.4-0.9,1.5-1.9C42.1,9.1,42,8.5,41.9,7.9z M28.8,1.5
		c-0.1,0.1-0.1,0.1-0.3,0.1c-0.1,0-0.5-0.4-0.5-0.5c0,0,0-0.1,0.1-0.1c0.1,0.1,0.2,0,0.3-0.1c0,0,0.1-0.1,0.2,0
		c0.1,0.1,0,0.1-0.1,0.2s-0.1,0.2,0,0.3S28.6,1.5,28.8,1.5c0,0,0-0.1-0.1-0.2c0,0-0.1-0.1,0-0.1s0.1,0,0.1,0.1
		C28.8,1.4,28.9,1.4,28.8,1.5z M29.2,1.2C29.2,1.2,29.1,1.2,29.2,1.2c-0.1,0-0.4-0.4-0.5-0.5C28.9,0.8,29,1,29.2,1.2
		C29.2,1.1,29.2,1.2,29.2,1.2z"/>
	<path class="st1" d="M25.6,4.4c-0.1-0.1-0.2-0.1-0.2-0.3c0-0.1,0.1-0.1,0-0.2c-0.1,0-0.1,0.1-0.1,0.2c0,0.1,0.1,0.2,0.1,0.2
		c0.1,0.1,0.2,0.1,0.2,0.3l0,0C25.8,4.6,25.7,4.5,25.6,4.4z"/>
	<path class="st1" d="M26,3.5L26,3.5c0.1,0.1,0.1,0.1,0.1,0.2c0,0.1,0.1,0.2-0.1,0.2c-0.1,0,0-0.1-0.1-0.2c-0.1,0.1-0.1,0.2,0,0.3
		s0.2,0,0.3,0l0,0c0.1,0,0.1-0.2,0.2-0.1c0.1,0.1-0.1,0.2-0.1,0.2c-0.1,0.1-0.2,0.1-0.4,0.1c-0.1-0.1-0.2-0.2-0.2-0.3
		C25.7,3.6,25.8,3.5,26,3.5z"/>
	<path class="st1" d="M28.6,1.7c-0.1,0-0.5-0.4-0.5-0.5c0,0,0-0.1,0.1-0.1c0.1,0.1,0.2,0,0.3-0.1c0,0,0.1-0.1,0.2,0
		c0.1,0.1,0,0.1-0.1,0.2s-0.1,0.2,0,0.3c0.1,0.1,0.1,0.1,0.2,0.1c0.1,0,0.1-0.1,0-0.2c0,0-0.1-0.1,0-0.1s0.1,0,0.1,0.1
		c0.1,0.1,0.1,0.2,0,0.3C28.8,1.6,28.7,1.7,28.6,1.7z"/>
	<path class="st1" d="M28.7,0.7C28.9,0.8,29,1,29.2,1.1v0.1c0,0,0,0-0.1,0C29,1.2,28.7,0.8,28.7,0.7z"/>
	<path class="st1" d="M28,1.8c-0.1,0-0.1,0-0.2,0l0,0c0-0.1,0.1-0.3,0.2-0.2C28.1,1.5,27.9,1.6,28,1.8C28,1.7,28,1.7,28,1.8z"/>
	<path class="st3" d="M15.5,2.2L15.5,2.2L15.5,2.2z"/>
	<path class="st1" d="M13.2,2.7c-0.1,0-0.2,0.1-0.3,0.1c-0.2-0.2-0.2-0.7,0.1-1c0.6-0.5,1.4-0.3,1.7,0.6c-0.1,0-0.2,0.1-0.3,0.1
		C14.2,2.3,14.2,2.1,14,2c-0.2-0.1-0.4-0.1-0.6,0.1C13.1,2.2,13.2,2.5,13.2,2.7z"/>
	<path class="st1" d="M26.9,14.8c-0.6-0.2-1.1-0.4-1.7-0.5c-2.7-0.5-5.3-0.1-7.6,1.6c-1.4,1-2.3,2.3-2.6,4c-0.2,1.2-0.1,2.4,0.5,3.5
		c0.8,1.6,2,2.7,3.6,3.5c1,0.5,2,0.8,3.1,0.9c1.6,0.2,3.2-0.1,4.7-0.7c0.2-0.1,0.2-0.1,0.3,0.1c0.1,0.3,0.2,0.5,0.3,0.7
		c0.1,0.1,0,0.2-0.1,0.3c-0.7,0.3-1.4,0.5-2.1,0.7c-1.9,0.4-3.7,0.3-5.5-0.3c-2.4-0.8-4.3-2.3-5.4-4.5c-1.2-2.4-1-4.7,0.3-6.9
		c1-1.7,2.6-2.8,4.4-3.5c1.9-0.8,3.9-0.9,6-0.6c2.4,0.4,4.4,1.5,6,3.4c2,2.4,2.1,5.7,0.4,8.3c-0.2,0.3-0.2,0.3-0.5,0.1
		c-0.2-0.1-0.4-0.2-0.6-0.3c-0.2-0.1-0.2-0.2-0.1-0.3c0.4-0.6,0.7-1.2,0.9-1.9c0.6-2.3-0.1-4.2-1.7-5.9c-0.1-0.1-0.1-0.1-0.2-0.2
		c0.1-1-0.8-1.9-2-1.7C27.2,14.7,27,14.6,26.9,14.8z"/>
	<path class="st1" d="M23.1,25.3c-1.6,0-3-0.5-4.1-1.8c-1.4-1.5-1.4-3.8,0-5.2c1.2-1.3,2.8-1.8,4.6-1.7c1.3,0.1,2.4,0.6,3.3,1.5
		c1.6,1.5,1.7,3.9,0.2,5.5C26,24.7,24.7,25.2,23.1,25.3z M23.1,24c1.1,0,2.1-0.3,2.9-1c1.3-1.1,1.4-2.9,0.1-4.1
		c-0.8-0.8-1.7-1.1-2.8-1.2C22,17.6,20.9,18,20,18.9c-1.1,1.1-1.1,2.7,0,3.8C20.9,23.7,21.9,24,23.1,24z"/>
	<path class="st1" d="M26.9,24.7c0-0.5,0.5-0.8,1-0.6c0.9,0.5,1.8,0.9,2.7,1.4c0.5,0.3,0.6,0.8,0.1,1.2c-0.5,0.4-1,0.9-1.4,1.3
		c-0.3,0.3-0.8,0.2-1-0.2c-0.3-0.5-0.5-1-0.7-1.6c-0.2-0.4-0.4-0.8-0.6-1.3C26.9,25,26.9,24.9,26.9,24.7z M29,27
		c0.2-0.2,0.5-0.4,0.7-0.6c0.1,0,0.1-0.1,0-0.1c-0.4-0.2-0.8-0.4-1.3-0.7c0.2,0.4,0.3,0.7,0.5,1.1C28.8,26.8,28.9,26.9,29,27z"/>
	<path class="st1" d="M19.8,25c0.5,0,1,0.4,1,0.9s-0.4,0.9-1,0.9c-0.5,0-0.9-0.4-0.9-0.9C18.8,25.4,19.3,25,19.8,25z"/>
	<path class="st1" d="M29.1,17.7c0.5,0,0.9,0.4,1,0.9c0,0.5-0.4,0.9-0.9,1c-0.5,0-1-0.4-1-0.9C28.2,18.2,28.6,17.7,29.1,17.7z"/>
	<path class="st1" d="M29.7,20.8c0.5,0,0.9,0.4,0.9,0.9s-0.4,0.9-1,0.9c-0.5,0-0.9-0.4-0.9-0.9C28.7,21.2,29.2,20.8,29.7,20.8z"/>
	<path class="st1" d="M18.3,23.8c0,0.5-0.4,1-1,0.9c-0.5,0-0.9-0.4-0.9-0.9s0.4-1,0.9-1C17.9,22.9,18.3,23.3,18.3,23.8z"/>
	<path class="st1" d="M23.2,25.7c0.5,0,1,0.4,0.9,0.9c0,0.5-0.4,0.9-1,0.9c-0.5,0-0.9-0.4-0.9-0.9S22.7,25.7,23.2,25.7z"/>
	<path class="st1" d="M15.4,20.9c0-0.5,0.4-1,0.9-0.9c0.5,0,0.9,0.4,0.9,0.9s-0.4,0.9-1,0.9C15.9,21.8,15.4,21.4,15.4,20.9z"/>
	<path class="st1" d="M16.5,17.9c0-0.5,0.4-0.9,0.9-0.9s0.9,0.4,0.9,0.9s-0.4,0.9-0.9,0.9S16.5,18.4,16.5,17.9z"/>
	<path class="st1" d="M20.2,14.9c0.5,0,1,0.4,1,1c0,0.5-0.4,0.9-1,0.9c-0.5,0-0.9-0.4-0.9-1C19.3,15.3,19.7,14.9,20.2,14.9z"/>
	<path class="st1" d="M23.6,16.3c-0.5,0-0.9-0.4-0.9-0.9s0.4-0.9,0.9-1c0.5,0,0.9,0.4,0.9,0.9C24.6,15.8,24.1,16.3,23.6,16.3z"/>
	<path class="st1" d="M26.9,14.8c0.1-0.2,0.3-0.2,0.5-0.2c1.2-0.2,2,0.7,2,1.7c-0.1-0.1-0.3-0.2-0.4-0.3c0.1-0.1,0-0.2,0-0.2
		c-0.3-0.6-0.8-0.8-1.5-0.7C27.2,15,27,14.9,26.9,14.8z"/>
	<path class="st1" d="M26.6,15.4c0.2-0.1,0.4-0.1,0.6,0c0,0.1-0.1,0.1-0.2,0.2c-0.3,0.2-0.3,0.5-0.3,0.8c0.1,0.3,0.3,0.5,0.6,0.5
		c0.1,0,0.1,0,0.2,0.1c-0.2,0.1-0.4,0.2-0.7,0.2v-0.1c-0.3-0.3-0.4-0.6-0.4-1C26.4,15.9,26.6,15.7,26.6,15.4z"/>
	<path class="st1" d="M27.5,17.1c0-0.1-0.1-0.1-0.2-0.1c-0.3,0-0.5-0.2-0.6-0.5s0-0.6,0.3-0.8c0.1-0.1,0.2-0.1,0.2-0.2
		c0.2,0.1,0.3,0.2,0.4,0.3c-0.1,0-0.2,0.1-0.3,0.1c-0.3,0.2-0.3,0.6-0.1,0.8c0.1,0.1,0.2,0.1,0.3,0.1s0.1-0.1,0.1-0.2
		c0-0.2,0-0.3,0.2-0.2C27.9,16.6,27.8,16.9,27.5,17.1z"/>
	<path class="st1" d="M26.6,15.4c-0.1,0.2-0.2,0.4-0.2,0.7c0,0.4,0.1,0.7,0.4,1v0.1c-0.3,0-0.7-0.2-0.8-0.5
		c-0.2-0.4-0.1-0.8,0.2-1.1C26.4,15.6,26.5,15.5,26.6,15.4z"/>
	<path class="st1" d="M14.4,30.3c0,0.1,0,0.2,0,0.3c0,0.3-0.3,0.6-0.6,0.7c-0.4,0.1-0.8,0-1-0.3c0.2,0.1,0.4,0,0.7,0
		c0.1,0,0.1-0.1,0.2-0.1C13.8,30.6,14,30.4,14.4,30.3z"/>
	<path class="st1" d="M27.8,16.3c-0.2,0-0.3,0.1-0.2,0.2c0,0.1,0.1,0.2-0.1,0.2c-0.1,0-0.2,0-0.3-0.1C27,16.4,27,16,27.3,15.8
		c0.1,0,0.2-0.1,0.3-0.1C27.8,15.9,27.8,16.1,27.8,16.3z"/>
	<path class="st1" d="M27.4,15.1c0.6-0.1,1.2,0.2,1.5,0.7c0,0.1,0.1,0.1,0,0.2C28.4,15.7,27.9,15.4,27.4,15.1z"/>
	<path class="st1" d="M12.5,17.3c-0.1-0.3-0.1-0.4,0.2-0.4C12.7,17.1,12.7,17.2,12.5,17.3z"/>
	<path class="st1" d="M13.2,2.7c-0.1-0.2-0.1-0.5,0.1-0.7c0.2-0.1,0.4-0.1,0.7,0c0.2,0.1,0.3,0.3,0.4,0.4c-0.1,0.1-0.2,0.1-0.3,0.1
		l0,0H14c0-0.1-0.1-0.1-0.2-0.1c-0.1,0-0.1,0.1-0.1,0.2C13.5,2.6,13.4,2.7,13.2,2.7z"/>
	<path class="st1" d="M13.7,2.6c0-0.1,0-0.2,0.1-0.2s0.2,0,0.2,0.1C13.9,2.6,13.8,2.6,13.7,2.6z"/>
	<path class="st1" d="M14.1,2.5L14.1,2.5L14.1,2.5z"/>
	<path class="st4" d="M29,27c-0.1-0.1-0.1-0.2-0.2-0.3c-0.2-0.3-0.3-0.7-0.5-1.1c0.5,0.2,0.9,0.5,1.3,0.7c0.1,0,0.1,0.1,0,0.1
		C29.4,26.6,29.2,26.8,29,27z"/>
</g>
<g id="Calque_2_1_" class="st0">
	<g class="st5">
		<path class="st6" d="M39.2,8.2c0-0.1,0-0.2,0-0.3V7.8h-0.1h0.1c0-0.3,0-0.5,0-0.8s0-0.5,0-0.8c-0.3-1.3-1.2-2-2.6-2
			c-5.5,0-11,0-16.5,0c-0.1,0-0.1,0-0.2,0c-0.1,0-0.1,0-0.1-0.1c0-0.3,0-0.5,0-0.8c0-1.5-1.2-2.8-2.8-2.8c-1.1,0-2.2,0-3.3,0
			c-1.3,0-2.5,1-2.7,2.3c-0.1,0.4,0,0.8,0,1.2c0,0.2,0,0.2-0.2,0.2C10,4.3,9.4,4.7,9,5.4c0,0,0,0,0,0.1C8.7,6,8.7,6.5,8.7,7
			c0,0.1,0,0.2,0,0.3c0,0.2,0,0.4,0,0.6c0,0.1,0,0.1,0,0.2c0,0.1,0,0.1,0,0.2c-0.1,0.1,0,0.2,0,0.3s0,0.2,0,0.2c0,1.9,0,3.8,0,5.7
			c0,0.2,0,0.3-0.2,0.3S8.2,14.9,8,14.9c-1.2,0.5-2,1.7-2,3c0,2.6,0,5.3,0,7.9c0,0.4,0,0.7,0,1.1c0,0.5,0,0.9,0.1,1.4
			c0.5,2.1,2.3,3.7,4.5,3.9c2,0.2,4.1-1,4.9-3c0.1-0.2,0.2-0.2,0.4-0.2c6.9,0,13.8,0,20.7,0c0.3,0,0.6,0,0.9-0.1
			c0.8-0.3,1.4-0.8,1.6-1.6l0.1-0.1c0-0.1,0.1-0.2,0-0.3l0,0c0.1-0.3,0-0.6,0.1-0.9c0-0.2,0-0.5,0-0.7c0-5.6,0-11.3,0-16.9
			C39.2,8.3,39.2,8.3,39.2,8.2z M19.5,8.3c0,0.1-0.1,0.1-0.2,0.1C19.3,8.4,19.4,8.3,19.5,8.3z M19.3,7.9c0.1,0,0.2,0,0.2,0.1l0,0
			l0,0c0,0.1,0,0.2,0,0.2c0-0.1,0-0.1,0-0.2C19.5,7.9,19.4,7.9,19.3,7.9z M19.5,7.9L19.5,7.9L19.5,7.9L19.5,7.9z M12,14.7
			c0-3.8,0-7.6,0-11.4c0-1,0.6-1.8,1.6-1.9c1.3-0.1,2.5-0.1,3.8,0c0.9,0.1,1.5,0.9,1.5,1.8c0,6.2,0,12.5,0,18.7c0,1-0.8,1.8-1.8,1.8
			c-1.1,0-2.2,0-3.3,0c-1,0-1.8-0.8-1.8-1.9c0-1.4,0-2.8,0-4.2c0-0.1,0-0.2,0-0.3c0-0.2,0-0.3,0-0.5c0.1-0.1,0-0.2,0-0.3
			c0-0.2,0-0.4,0-0.5c0.1-0.3,0.1-0.7,0-1C12,14.9,12,14.8,12,14.7z M11.5,17.8L11.5,17.8C11.5,17.8,11.5,17.8,11.5,17.8
			s0.1-0.1,0-0.3c-0.1,0-0.2-0.1-0.3-0.1c0.1,0,0.2,0.1,0.3,0.1l0,0l0,0C11.6,17.6,11.6,17.7,11.5,17.8z M11.6,17.4L11.6,17.4
			L11.6,17.4L11.6,17.4z M14.4,29.2c-0.8,1.4-2.5,2.2-4,2C8.7,30.9,7.3,29.7,7,28c-0.1-0.5-0.1-0.9-0.1-1.4c0-0.1,0-0.2,0-0.3
			c0.1-0.1,0-0.2,0-0.3c0-0.2,0-0.5,0-0.7c0-0.1,0-0.2,0-0.4c0-2.3,0-4.6,0-6.9c0-1.1,0.6-1.9,1.6-2.2c0.2-0.1,0.2,0,0.2,0.2
			c0,2.9,0,5.9,0,8.8c0,0.1,0,0.2,0,0.3c0.1,0,0.1,0,0.1,0.1c0,0-0.1,0-0.1-0.1c0,0.1,0,0.2,0,0.3c0,0.2,0,0.4,0,0.5
			c0,0,0.1,0,0.1,0.1c0,0-0.1,0-0.1-0.1c0,0.1,0,0.2,0,0.3c-0.1,0.2,0,0.4,0,0.6c0,0.1,0,0.1,0,0.1c0,0.1,0,0.2,0.1,0.3
			c0,0.1,0,0.2,0.1,0.2c0.3,0.9,1.2,1.5,2.2,1.5c1.1,0,2.1,0,3.2,0C14.5,28.9,14.5,29,14.4,29.2z M14.9,27.8c0,0.1-0.1,0.2-0.2,0.2
			c-1.2,0-2.4,0-3.6,0c-0.6,0-1-0.4-1.3-0.8v-0.1c0-0.1,0-0.1-0.1-0.2c-0.1-0.3,0-0.6-0.1-1c0,0-0.1,0-0.1-0.1c0,0,0.1,0,0.1,0.1
			c0-0.3,0-0.5,0-0.8c0-0.1,0-0.2,0-0.3c0-5.5,0-11,0-16.5c0-0.1,0-0.3,0-0.4c0-0.3,0-0.6,0-0.9s0-0.5,0.1-0.8
			c0.2-0.5,0.5-0.8,1.1-1C11,5.1,11,5.2,11,5.4c0,3.1,0,6.3,0,9.4v0.1c0,0.2,0,0.3,0,0.5v0.1c0,0.4,0,0.9,0,1.3l0,0
			c0,0.1,0,0.2,0,0.4l0,0c0,0.2-0.1,0.4,0,0.7c0,1.4,0,2.8,0,4.1c0,1.2,0.8,2.2,2,2.6c0.2,0.1,0.3,0.1,0.3,0.4c0,0.5,0.1,1,0.6,1.3
			c0.3,0.2,0.6,0.2,0.9,0.2c0.2,0,0.3,0,0.2,0.2C14.9,27,15,27.4,14.9,27.8z M38.2,27c-0.2,0.6-0.7,0.9-1.3,1c-0.1,0-0.2,0-0.3,0
			c-6.8,0-13.6,0-20.5,0c-0.3,0-0.3,0-0.3-0.3c0-0.4,0-0.7,0-1.1c0-0.1,0-0.2,0.2-0.2c1.2,0,1.5-0.4,1.5-1.5c0-0.2,0-0.2,0.2-0.3
			c1.2-0.4,2-1.4,2-2.7c0-4.5,0-8.9,0-13.4c0-0.1,0.1-0.2,0-0.3c0.1-0.3,0-0.6,0-0.9c0-0.1,0-0.3,0-0.4c0-0.2,0-0.3,0-0.5
			c0-0.3,0-0.6,0-0.9s0-0.3,0.4-0.3c5.5,0,10.9,0,16.4,0c0.7,0,1.2,0.3,1.5,0.9c0,0.1,0.1,0.3,0.1,0.4c0-0.1,0.1-0.1,0.2-0.1
			c-0.1,0-0.1,0.1-0.2,0.1c0,0.2,0,0.3,0,0.5h0.1h-0.1c0,0.1,0,0.3,0,0.4c0,0.2-0.1,0.4,0.1,0.6l0,0c-0.1,0.2-0.1,0.4-0.1,0.6
			c0,5.4,0,10.7,0,16.1c0,0.1,0,0.2,0,0.3c0,0.1,0,0.3,0,0.4l0,0c-0.1,0.2,0,0.4,0,0.5s0,0.3,0,0.4C38.2,26.5,38.3,26.8,38.2,27z"/>
		<path class="st6" d="M25.3,11.3c3,0,6,0,9,0c0.6,0,1.2,0,1.9,0c0.6,0,1.1-0.5,1.1-1.1c0-0.7,0-1.3,0-2c0-0.2,0-0.3,0-0.5
			c0-0.5-0.2-0.8-0.6-1c-0.1-0.1-0.2-0.1-0.4-0.1c-0.4,0-0.7,0-1.1,0c-0.1,0-0.3,0-0.4,0c-0.3,0-0.7,0-1,0c-2.7,0-5.3,0-8,0
			c-0.3,0-0.6-0.1-0.8,0c-0.1,0-0.2,0-0.3,0.1c-0.2,0.1-0.4,0.2-0.4,0.5c-0.1,0.1-0.1,0.3-0.1,0.4c0,0.8,0,1.6,0,2.4
			C24.1,10.9,24.6,11.3,25.3,11.3z M36.2,7.7c0.1,0,0.1,0,0.2,0C36.3,7.7,36.3,7.7,36.2,7.7s-0.2,0-0.2,0
			C36.1,7.7,36.1,7.7,36.2,7.7z"/>
		<path class="st6" d="M36.8,13.1c0.3,0,0.5-0.3,0.4-0.6c-0.1-0.2-0.3-0.4-0.6-0.4c-2.9,0-5.9,0-8.8,0c-0.9,0-1.9,0-2.8,0
			c-0.1,0-0.3,0-0.4,0.1c-0.2,0.1-0.2,0.3-0.2,0.5c0.1,0.2,0.3,0.3,0.5,0.3c1.9,0,3.9,0,5.8,0c1.8,0,3.7,0,5.5,0
			C36.5,13.1,36.6,13.1,36.8,13.1z"/>
		<path class="st6" d="M31.5,23.8c-0.6,0-1.1,0-1.7,0c-0.7,0-1.2,0.6-1.2,1.4c0,0.7,0.5,1.2,1.2,1.3c0.3,0,0.5,0,0.8,0s0.5,0,0.8,0
			c0.7,0,1.2-0.5,1.2-1.2C32.7,24.4,32.3,23.8,31.5,23.8z"/>
		<path class="st6" d="M34.5,23.1c0.3,0,0.5,0,0.8,0s0.5,0,0.8,0c0.7,0,1.2-0.5,1.2-1.2c0-0.8-0.4-1.4-1.1-1.5c-0.6,0-1.2,0-1.8,0
			c-0.7,0-1.1,0.6-1.1,1.4C33.3,22.6,33.8,23.1,34.5,23.1z M35.2,21.4c0.1,0,0.2,0,0.4,0C35.5,21.4,35.3,21.4,35.2,21.4
			c-0.2,0-0.5,0-0.7,0C34.8,21.4,35,21.4,35.2,21.4z"/>
		<path class="st6" d="M29.9,23.1c0.2,0,0.5,0,0.7,0s0.5,0,0.7,0c0.7,0,1.2-0.5,1.3-1.2c0-0.8-0.4-1.4-1.2-1.4c-0.5,0-1.1,0-1.6,0
			c-0.7,0-1.2,0.6-1.2,1.4C28.7,22.6,29.2,23.1,29.9,23.1z M30.7,21.4c0.2,0,0.5,0,0.7,0C31.2,21.4,30.9,21.4,30.7,21.4
			s-0.5,0-0.7,0C30.2,21.4,30.4,21.4,30.7,21.4z"/>
		<path class="st6" d="M25.3,23.1c0.3,0,0.5,0,0.8,0c0.2,0,0.5,0,0.7,0c0.8,0,1.3-0.5,1.3-1.3s-0.5-1.3-1.3-1.3c-0.4,0-0.9,0-1.3,0
			c-0.9,0-1.5,0.6-1.4,1.5C24.2,22.6,24.7,23.1,25.3,23.1z M26.2,21.4c0.2,0,0.5,0,0.7,0C26.6,21.4,26.4,21.4,26.2,21.4
			s-0.5,0-0.7,0C25.7,21.4,25.9,21.4,26.2,21.4z"/>
		<path class="st6" d="M34.2,19.8c0.2,0,0.4,0,0.6,0c0.4,0,0.9,0,1.3,0c0.7-0.1,1.1-0.6,1-1.4c0-0.6-0.5-1.2-1.1-1.2
			c-0.5,0-0.9,0-1.4,0c-0.4,0-0.8,0.1-1.1,0.3c0,0-0.1,0-0.1,0.1c0,0-0.1,0,0,0.1l0,0c-0.1,0-0.1,0.1-0.1,0.2
			C33.1,18.5,33.3,19.6,34.2,19.8z M35.2,18.1c0.2,0,0.5,0,0.7,0C35.7,18.1,35.5,18.1,35.2,18.1c-0.2,0-0.5,0-0.7,0
			C34.8,18.1,35,18.1,35.2,18.1z"/>
		<path class="st6" d="M25.3,16.5c0.5,0,1,0,1.6,0c0.1,0,0.3,0,0.4,0c0.3-0.1,0.5-0.2,0.6-0.4c0.1-0.1,0.2-0.2,0.2-0.3
			c0.1-0.1,0.1-0.3,0.1-0.4c0-0.1,0-0.2,0-0.3C28.1,14.5,27.7,14,27,14c-0.5,0-1.1,0-1.6,0c-0.1,0-0.2,0-0.3,0
			c-0.6,0.2-1,0.7-0.9,1.5C24.2,16,24.7,16.5,25.3,16.5z"/>
		<path class="st6" d="M27,23.8c-0.5,0-1.1,0-1.6,0c-0.6,0-1.1,0.5-1.2,1.1c0,0.1,0,0.2,0,0.4c0,0.2,0.1,0.4,0.2,0.6
			c0.1,0.1,0.2,0.3,0.3,0.3c0.2,0.1,0.4,0.2,0.7,0.2c0.5,0,1,0,1.6,0c0.7,0,1.2-0.5,1.2-1.2C28.1,24.3,27.7,23.8,27,23.8z"/>
		<path class="st6" d="M36.1,23.8c-0.5,0-1.1,0-1.6,0c-0.7,0-1.2,0.6-1.2,1.4c0,0.7,0.5,1.2,1.2,1.2c0.5,0,1,0,1.6,0
			c0.4,0,0.8-0.2,1-0.5c0.3-0.4,0.3-0.9,0.1-1.3C36.9,24,36.6,23.8,36.1,23.8z M34.8,24.7L34.8,24.7c-0.1,0-0.2,0-0.3,0
			C34.6,24.7,34.7,24.7,34.8,24.7z"/>
		<path class="st6" d="M29.9,13.8c-0.2,0-0.4,0.1-0.6,0.2c-0.5,0.3-0.7,0.8-0.6,1.5c0.1,0.4,0.3,0.6,0.6,0.8
			c0.2,0.1,0.3,0.1,0.5,0.1c0.1,0,0.3,0,0.4,0c0.2,0,0.4,0,0.6,0c0.1,0.1,0.3,0,0.4,0h0.1c0.1,0,0.3,0,0.4-0.1
			c0.3,0,0.5-0.2,0.6-0.4c0.1-0.1,0.2-0.2,0.2-0.4c0-0.1,0-0.1,0-0.2c0.2-0.8-0.4-1.6-1.2-1.6C30.9,13.8,30.4,13.8,29.9,13.8z
			 M29.8,15.5c-0.1,0-0.1,0-0.2,0C29.7,15.5,29.7,15.5,29.8,15.5L29.8,15.5z M29.6,15.5L29.6,15.5C29.6,15.5,29.6,15.5,29.6,15.5z
			 M29.4,15.5L29.4,15.5L29.4,15.5z"/>
		<path class="st6" d="M33.6,16.1c0.2,0.3,0.5,0.4,0.9,0.4c0.5,0,1,0,1.5,0c0.7,0,1.3-0.5,1.3-1.3s-0.5-1.3-1.2-1.3
			c-0.5,0-1,0-1.5,0c-0.2,0-0.4,0-0.6,0.1c-0.6,0.3-0.9,1.1-0.6,1.8C33.4,15.9,33.4,16,33.6,16.1z"/>
		<path class="st6" d="M27.5,17.3c-0.2-0.1-0.4-0.2-0.7-0.2c-0.4,0-0.9,0-1.3,0c-0.9,0-1.4,0.6-1.3,1.5c0.1,0.7,0.6,1.1,1.2,1.1
			c0.5,0,1,0,1.6,0c0.1,0,0.2,0,0.2,0c1.1-0.2,1.2-1.5,0.7-2.1C27.8,17.5,27.7,17.4,27.5,17.3z M27.5,17.4
			C27.4,17.4,27.4,17.4,27.5,17.4C27.4,17.5,27.4,17.5,27.5,17.4C27.4,17.4,27.4,17.4,27.5,17.4z"/>
		<path class="st6" d="M32.1,17.3c-0.2-0.1-0.4-0.2-0.7-0.2c-0.5,0-0.9,0-1.4,0c-0.2,0-0.3,0-0.5,0.1c-0.1,0-0.1,0-0.1,0
			c-0.2,0.1-0.4,0.2-0.5,0.4l0,0c-0.3,0.4-0.3,0.9-0.1,1.3c0.2,0.5,0.5,0.7,1,0.7c0.2,0,0.4,0,0.5,0c0.3,0,0.7,0,1,0
			c0.6,0,1-0.2,1.2-0.7s0.2-1.1-0.2-1.5C32.3,17.4,32.2,17.4,32.1,17.3z"/>
		<path class="st6" d="M13.3,19.8c1.4,0,2.9,0,4.3,0c0.2,0,0.3-0.1,0.4-0.2c0.2-0.3,0-0.7-0.4-0.7c-0.7,0-1.4,0-2.1,0l0,0
			c-0.7,0-1.4,0-2.1,0c-0.3,0-0.5,0.2-0.5,0.5C12.8,19.6,13,19.8,13.3,19.8z"/>
		<path class="st6" d="M13.3,22c1.4,0,2.8,0,4.2,0c0.1,0,0.2,0,0.2,0c0.2-0.1,0.3-0.3,0.3-0.5c0-0.3-0.2-0.5-0.4-0.5
			c-0.7,0-1.4,0-2.1,0c-0.7,0-1.4,0-2.1,0c-0.3,0-0.5,0.2-0.5,0.5C12.8,21.8,13,22,13.3,22z"/>
	</g>
</g>
<g id="Calque_3" class="st0">
	<path class="st1" d="M14.3,11.2c0-0.1,0-0.2-0.1-0.4c0,0,0,0,0-0.1c-0.1-0.1,0-0.3,0-0.4c0-0.3-0.1-0.5-0.1-0.8l0,0c0,0,0,0,0-0.1
		c0,0,0,0,0-0.1s0-0.1,0-0.2c0,0,0,0,0-0.1c0-0.9,0.1-1.8,0.4-2.6c0.6-2.3,1.8-4,3.9-5.2c1.2-0.7,2.6-1.1,4-1.2c0.3,0,0.6,0,0.8,0
		l0,0c0.1,0,0.1,0,0.2,0c0,0,0,0,0.1,0c0.4,0,0.8,0.1,1.2,0.1c0.1,0,0.2,0,0.2,0c0.1,0,0.3,0.1,0.4,0.1h0.1l0,0c0,0,0,0,0.1,0
		c1.2,0.3,2.3,0.8,3.3,1.6c0.8,0.6,1.5,1.4,2,2.3c0.6,1.1,1,2.3,1.2,3.6c0.1,0.6,0.1,1.3,0.1,1.9c0,0.7-0.2,1.4-0.4,2.1
		c-0.5,1.5-1.2,2.8-2.1,4c-0.8,1.1-1.6,2.4-2,3.7c-0.3,0.8-0.5,1.5-0.4,2.4c0,0.1,0,0.2-0.2,0.2c-0.8,0-1.5,0-2.3,0
		c-1.8,0-3.6,0-5.4,0c-0.1,0-0.2,0-0.1-0.1c0-1.2-0.3-2.3-0.8-3.3c-0.5-1.1-1.2-2.1-1.9-3.1c-0.8-1.2-1.5-2.4-1.9-3.8c0,0,0,0,0-0.1
		C14.4,11.6,14.4,11.4,14.3,11.2z M25.1,21.6c0.3,0,0.7,0,1,0h0.1c0.1,0,0.2,0.1,0.2-0.1c0-0.7,0.2-1.5,0.5-2.2
		c0.5-1.3,1.2-2.5,2-3.6c0.9-1.2,1.6-2.5,2.1-3.9c0.3-0.8,0.4-1.6,0.4-2.5c0-0.6-0.1-1.2-0.2-1.8c-0.2-1-0.5-2-1-2.9
		c-0.7-1.2-1.6-2.1-2.8-2.7c-0.6-0.3-1.2-0.6-1.9-0.8c-0.2,0-0.4-0.1-0.6-0.1c-0.3-0.1-0.7-0.1-1-0.1c-0.2,0-0.4,0-0.5,0
		c-1.1,0-2.2,0.2-3.2,0.5c-1.2,0.4-2.3,1-3.1,1.9C16.2,4,15.7,4.9,15.3,6c-0.3,0.9-0.5,1.8-0.5,2.7c0,0.5-0.1,0.9,0,1.4
		c0.1,1,0.4,1.9,0.8,2.9c0.4,0.9,0.8,1.7,1.4,2.4c0.7,1,1.4,2,1.9,3s0.8,2,0.9,3c0,0.1,0,0.1,0.1,0.1c1.1,0,2.1,0,3.2,0
		C23.7,21.6,24.4,21.6,25.1,21.6L25.1,21.6z"/>
	<path class="st1" d="M23.1,29.7c-1,0-2.1,0-3.1,0c-0.5,0-0.9-0.2-1.1-0.7c-0.2-0.4-0.2-0.8,0.1-1.2c0.2-0.3,0.6-0.4,0.9-0.4
		c0.7,0,1.4,0,2.2,0c1.4,0,2.7,0,4.1,0c0.6,0,1.1,0.4,1.2,1c0.1,0.6-0.4,1.2-1.1,1.2C25.2,29.7,24.2,29.7,23.1,29.7L23.1,29.7z
		 M23.1,29.1c1,0,2,0,3.1,0c0.1,0,0.2,0,0.3,0c0.2-0.1,0.4-0.3,0.3-0.6c0-0.3-0.3-0.5-0.5-0.5c-1,0-2,0-2.9,0c-1.1,0-2.2,0-3.3,0
		c-0.2,0-0.3,0-0.4,0.2c-0.1,0.2-0.2,0.4-0.1,0.6c0.1,0.2,0.3,0.3,0.5,0.3C21,29,22,29.1,23.1,29.1z"/>
	<path class="st1" d="M23.1,24.7c-1.1,0-2.2,0-3.3,0c-0.3,0-0.5-0.2-0.7-0.4c-0.3-0.3-0.4-0.8-0.2-1.2c0.2-0.5,0.6-0.7,1.1-0.7
		c1.1,0,2.2,0,3.3,0c1,0,2,0,2.9,0c0.6,0,1.1,0.4,1.2,1c0.1,0.5-0.2,1-0.7,1.2c-0.1,0.1-0.3,0.1-0.4,0.1
		C25.2,24.7,24.1,24.7,23.1,24.7L23.1,24.7z M26.6,23.2C26.5,23,26.3,23,26.2,23c-0.9,0-1.8,0-2.7,0c-1.2,0-2.3,0-3.5,0
		c-0.2,0-0.3,0-0.4,0.2c-0.2,0.2-0.2,0.5,0,0.7c0.1,0.1,0.3,0.2,0.5,0.2c1.9,0,3.9,0,5.8,0c0.2,0,0.3,0,0.5,0s0.4-0.1,0.4-0.3
		C26.8,23.5,26.8,23.4,26.6,23.2L26.6,23.2z"/>
	<path class="st1" d="M26.8,25c0.3,0.2,0.5,0.5,0.6,0.9c0.1,0.7-0.4,1.3-1.1,1.3c-1,0-2.1,0-3.1,0c-1.1,0-2.1,0-3.2,0
		c-0.8,0-1.3-0.7-1.1-1.5c0.1-0.4,0.5-0.7,0.9-0.8c0.1,0,0.2,0,0.3,0c2,0,4,0,6.1,0C26.3,24.9,26.6,24.9,26.8,25z M23.1,25.5
		c-1,0-2.1,0-3.1,0c-0.3,0-0.6,0.2-0.6,0.5s0.3,0.6,0.6,0.6c2.1,0,4.1,0,6.2,0c0.1,0,0.1,0,0.2,0c0.3-0.1,0.5-0.3,0.4-0.6
		c0-0.3-0.2-0.5-0.5-0.5C25.2,25.5,24.1,25.5,23.1,25.5z"/>
	<path class="st1" d="M24.9,32.1L24.9,32.1c-0.1,0-0.2,0-0.3,0.1c-1,0-2,0-3,0c-0.5,0-1-0.4-1.1-0.9s0.1-1,0.6-1.3
		c0.2-0.1,0.3-0.1,0.5-0.1c0.9,0,1.9,0,2.8,0c0.7,0,1.2,0.5,1.2,1.2v0.1c0,0.1,0,0.1-0.1,0.2c0,0,0,0.1-0.1,0.1
		c0,0.1-0.1,0.1-0.1,0.2l0,0c0,0,0,0-0.1,0.1C25.2,31.9,25.1,32,24.9,32.1C25,32,25,32.1,24.9,32.1z M23.1,31.5L23.1,31.5
		c0.5,0,0.9,0,1.4,0c0.3,0,0.6-0.2,0.6-0.5s-0.2-0.6-0.6-0.6c-0.9,0-1.8,0-2.8,0c-0.3,0-0.6,0.2-0.6,0.5s0.2,0.5,0.6,0.5
		C22.2,31.5,22.6,31.5,23.1,31.5z"/>
	<path class="st1" d="M19.6,10c0-0.2,0.1-0.3,0.3-0.3s0.3,0.1,0.3,0.3c0.1,0.7,0.3,1.3,0.4,2c0.2,1,0.4,1.9,0.6,2.9
		c0.4,1.9,0.7,3.8,1.1,5.6c0,0.1,0,0.2,0.1,0.3c0,0.2-0.1,0.3-0.2,0.4c-0.2,0-0.3-0.1-0.4-0.3c-0.2-1-0.4-1.9-0.6-2.9
		c-0.3-1.4-0.5-2.7-0.8-4.1C20.1,12.6,19.9,11.4,19.6,10C19.6,10.1,19.6,10.1,19.6,10z"/>
	<path class="st1" d="M24.5,20.6c0,0.2-0.1,0.3-0.1,0.5c0,0-0.1,0-0.1,0.1c-0.3,0.1-0.5-0.1-0.4-0.4c0.3-1.3,0.5-2.7,0.8-4
		c0.3-1.6,0.6-3.2,0.9-4.7c0.1-0.6,0.2-1.1,0.3-1.7c0.1-0.1,0-0.3,0.1-0.4c0,0,0.1,0,0.1-0.1c0.1-0.1,0.2-0.1,0.3,0s0.2,0.2,0.1,0.4
		c-0.3,1.6-0.6,3.2-1,4.8c-0.3,1.7-0.7,3.4-1,5.1v0.1l0,0c0,0,0,0,0,0.1L24.5,20.6C24.5,20.5,24.5,20.5,24.5,20.6L24.5,20.6z"/>
	<path class="st1" d="M20,23.1C20,23.2,20,23.2,20,23.1C20,23.2,20,23.2,20,23.1L20,23.1L20,23.1z"/>
	<path class="st1" d="M11.3,12.6H1.4c-0.3,0-0.6-0.3-0.6-0.6l0,0c0-0.3,0.3-0.6,0.6-0.6h9.9c0.3,0,0.6,0.3,0.6,0.6l0,0
		C11.9,12.4,11.6,12.6,11.3,12.6z"/>
	<path class="st1" d="M44.7,12.6h-9.9c-0.3,0-0.6-0.3-0.6-0.6l0,0c0-0.3,0.3-0.6,0.6-0.6h9.9c0.3,0,0.6,0.3,0.6,0.6l0,0
		C45.3,12.4,45,12.6,44.7,12.6z"/>
	<path class="st1" d="M11.7,8.6l-7-7C4.5,1.4,4.5,1,4.7,0.8l0,0c0.2-0.2,0.6-0.2,0.8,0l7,7c0.2,0.2,0.2,0.6,0,0.8l0,0
		C12.3,8.8,11.9,8.8,11.7,8.6z"/>
	<path class="st1" d="M34.4,8.6l7-7c0.2-0.2,0.2-0.6,0-0.8l0,0c-0.2-0.2-0.6-0.2-0.8,0l-7,7c-0.2,0.2-0.2,0.6,0,0.8l0,0
		C33.8,8.8,34.2,8.8,34.4,8.6z"/>
	<path class="st1" d="M12.7,14.8l-7,7c-0.2,0.2-0.2,0.6,0,0.8l0,0c0.2,0.2,0.6,0.2,0.8,0l7-7c0.2-0.2,0.2-0.6,0-0.8l0,0
		C13.3,14.6,12.9,14.6,12.7,14.8z"/>
	<path class="st1" d="M33.4,14.8l7,7c0.2,0.2,0.2,0.6,0,0.8l0,0c-0.2,0.2-0.6,0.2-0.8,0l-7-7c-0.2-0.2-0.2-0.6,0-0.8l0,0
		C32.8,14.6,33.2,14.6,33.4,14.8z"/>
</g>
<g id="Calque_4" class="st0">
	<path class="st1" d="M5,12.7c0.7,0,1.5,0,2.2,0c0.2,0,0.3,0,0.3-0.2c0.1-0.3,0.3-0.7,0.5-1c0.4-0.9,1-1.6,1.7-2.3
		c2-1.8,4.3-2.7,6.9-2.5c2.3,0.1,4.3,0.9,6,2.5c0.1,0.1,0.2,0.1,0.3,0c1.3-1.2,2.7-2,4.4-2.3c3-0.6,5.8,0,8.2,2
		c1.1,0.9,2,2.1,2.5,3.5c0.1,0.2,0.2,0.3,0.4,0.3c0.9,0,1.8,0,2.7,0c0.5,0,0.6,0.2,0.6,0.6c0,1.3,0,2.5,0,3.8c0,0.3-0.2,0.5-0.5,0.5
		c-1,0-2,0-3,0c-0.1,0-0.2,0-0.3,0.2c-0.9,2.5-2.6,4.1-5,5.1c-1.3,0.6-2.7,0.8-4.2,0.7c-2.3-0.2-4.3-0.9-5.9-2.5
		c-0.1-0.1-0.1-0.1-0.2,0c-2.1,1.9-4.6,2.7-7.4,2.5c-1-0.1-1.9-0.3-2.8-0.7c-2.2-1-3.9-2.6-4.8-4.9c-0.2-0.4-0.1-0.4-0.6-0.4
		c-1.3,0-2.5,0-3.8,0c-0.2,0-0.3,0-0.5,0c-0.3,0-0.5-0.2-0.5-0.5s0-0.5,0-0.8c0-1,0-1.9,0-2.9v-0.1c0-0.5,0.2-0.7,0.7-0.7
		C3.6,12.7,4.3,12.7,5,12.7z M16.5,7.6c-1,0-1.8,0.1-2.5,0.3c-2.5,0.7-4.4,2.2-5.5,4.7c-1.1,2.7-0.4,5.7,1.7,7.9
		c1.5,1.4,3.2,2.2,5.2,2.4c2.5,0.2,4.7-0.6,6.5-2.3c0.1-0.1,0.1-0.2,0-0.3c-0.6-0.7-1-1.5-1.3-2.3c0-0.1,0-0.2-0.1-0.2
		s-0.2,0.1-0.3,0.2c-0.7,0.8-1.5,1.4-2.6,1.7c-2.1,0.6-4,0.2-5.5-1.4c-1.2-1.3-1.5-3.2-0.7-4.7c0.9-1.6,2.3-2.4,4.1-2.6
		c1.8-0.2,3.3,0.4,4.6,1.7c0.1,0.1,0.2,0.1,0.2,0c0.3-0.2,0.5-0.4,0.6-0.7c0.3-0.6,0.6-1.1,1-1.6c0.1-0.1,0.1-0.2,0-0.3
		C20.4,8.4,18.4,7.6,16.5,7.6z M35.3,12.7L35.3,12.7c0.5,0,1,0,1.5,0c0.2,0,0.2-0.1,0.1-0.2c-0.3-0.7-0.7-1.4-1.2-2
		c-1.5-1.7-3.4-2.7-5.7-2.9c-1.8-0.2-3.5,0.2-5.1,1.1c-1.4,0.8-2.4,1.9-3.1,3.4c-0.1,0.3-0.3,0.6-0.5,0.8c-0.1,0.1-0.1,0.2-0.1,0.3
		c0.1,0.3,0.2,0.7,0.3,1.1c0.1,0.3-0.1,0.5-0.3,0.6c-0.3,0.1-0.5-0.1-0.6-0.3s-0.1-0.5-0.2-0.7c0-0.2-0.1-0.3-0.3-0.2
		c-0.1,0-0.3,0-0.4,0c-0.5,0-1,0-1.6,0c-0.2,0-0.2,0-0.2,0.2c0.3,0.9,0.5,1.8,0.7,2.7c0,0.1,0.1,0.2,0.2,0.1c0.5,0,1,0,1.4,0
		c1.7-0.2,2.9-1,3.9-2.4c0.3-0.4,0.5-0.9,0.8-1.3c0.4-0.6,0.9-1.1,1.4-1.5c1.1-0.7,2.3-0.9,3.6-0.8c1.4,0.2,2.6,0.7,3.5,1.8
		c0.1,0.1,0.2,0.1,0.3,0.1C34.3,12.7,34.8,12.7,35.3,12.7z M24.4,15.6c-0.1,0-0.1,0.1-0.1,0.1c-0.7,0.8-1.5,1.3-2.5,1.6
		c-0.2,0.1-0.1,0.1-0.1,0.3c0.5,1.5,1.4,2.7,2.7,3.6c2.9,2.1,6.7,2.2,9.7,0.2c1.3-0.9,2.3-2,2.9-3.5c0-0.1,0.1-0.2-0.1-0.2
		c-1.1,0-2.1,0-3.2,0c-0.1,0-0.2,0-0.2,0.1c-0.9,1.1-2,1.7-3.4,1.9c-1.8,0.2-3.4-0.3-4.7-1.6C24.8,17.4,24.5,16.6,24.4,15.6z
		 M38.3,13.6L38.3,13.6c-0.8,0-1.6,0-2.4,0c-0.1,0-0.2,0-0.2,0.2c0.3,0.9,0.5,1.9,0.7,2.8c0,0.1,0.1,0.2,0.2,0.2c1.3,0,2.6,0,3.9,0
		c0.1,0,0.2,0,0.2-0.2c0-0.9,0-1.8,0-2.7c0-0.2,0-0.2-0.2-0.2C39.8,13.6,39.1,13.6,38.3,13.6z M27.2,16.7c0.4,0,0.9,0,1.3,0
		c0.1,0,0.2,0,0.2-0.2c-0.3-0.9-0.5-1.9-0.7-2.8c0-0.1-0.1-0.2-0.2-0.1c-0.6,0-1.2,0-1.8,0c-0.1,0-0.2,0-0.3,0.1
		c-0.2,0.3-0.3,0.6-0.5,0.8c-0.1,0.1-0.1,0.2,0,0.3c0.2,0.5,0.4,1.1,0.6,1.7c0,0.1,0.1,0.2,0.3,0.2S26.8,16.7,27.2,16.7z M17.8,16.7
		c-0.3-1-0.5-2-0.8-3c0-0.1-0.1-0.1-0.1-0.1c-0.8,0-1.6,0-2.4,0c0.3,1,0.5,2,0.8,3c0,0.1,0.1,0.1,0.1,0.1
		C16.2,16.7,17,16.7,17.8,16.7z M32.1,16.7c-0.3-1-0.5-2-0.8-3c0-0.1-0.1-0.1-0.2-0.1c-0.7,0-1.4,0-2.2,0c-0.2,0-0.2,0-0.1,0.2
		c0.2,0.7,0.4,1.5,0.6,2.2c0.1,0.2,0,0.5,0.2,0.6s0.5,0,0.7,0C30.9,16.7,31.5,16.7,32.1,16.7z M35.6,16.7c-0.3-1-0.5-2-0.8-3
		c0-0.1-0.1-0.1-0.2-0.1c-0.7,0-1.5,0-2.2,0c-0.1,0-0.2,0-0.1,0.2c0.3,0.9,0.5,1.9,0.7,2.8c0,0.1,0.1,0.1,0.2,0.1c0.6,0,1.3,0,1.9,0
		C35.3,16.7,35.4,16.7,35.6,16.7z M13.4,16.7c0.3,0,0.5,0,0.8,0c0.1,0,0.2,0,0.1-0.2c-0.3-0.9-0.5-1.9-0.7-2.8
		c0-0.1-0.1-0.1-0.2-0.1c-0.2,0-0.5,0-0.7,0s-0.2,0.1-0.3,0.2c-0.4,0.9-0.4,1.9,0,2.8c0,0.1,0.1,0.1,0.2,0.1
		C12.9,16.7,13.1,16.7,13.4,16.7z M3.2,15.2c0,0.4,0,0.9,0,1.3c0,0.1,0,0.2,0.2,0.2c0.5,0,1.1,0,1.6,0c0.1,0,0.2,0,0.1-0.2
		c-0.3-0.9-0.5-1.9-0.7-2.8c0-0.1-0.1-0.2-0.2-0.2c-0.3,0-0.5,0-0.8,0c-0.2,0-0.2,0.1-0.2,0.2C3.2,14.3,3.2,14.7,3.2,15.2z
		 M13.2,12.7c2,0,3.9,0,5.9,0C17.7,11.3,14.8,11.2,13.2,12.7z M6.3,13.6c-0.3,0-0.5,0-0.8,0c-0.1,0-0.2,0-0.1,0.2
		c0.3,0.9,0.5,1.9,0.7,2.8c0,0.1,0.1,0.1,0.2,0.1c0.3,0,0.6,0,0.9,0c0.1,0,0.1,0,0.1-0.1c-0.2-0.9-0.2-1.9,0-2.8
		c0-0.1,0-0.1-0.1-0.1C6.8,13.6,6.5,13.6,6.3,13.6z M26.5,12.7c1.9,0,3.9,0,5.8,0C30.6,11.1,27.7,11.4,26.5,12.7z M19.1,17.7
		c-0.3,0-5.7,0-5.8,0C14.9,19.1,17.6,19,19.1,17.7z M32.3,17.7c-2,0-3.9,0-5.8,0C28.1,19.1,30.8,19.1,32.3,17.7z"/>
</g>
<g id="Calque_5" class="st0">
	<path class="st1" d="M13.4,0.1C14.6,0.4,15.8,1,17,1.4c1.7,0.6,3.3,1.2,5,1.9c0.3,0.1,0.5,0.2,0.4,0.6c-0.1,0.3,0.1,0.4,0.4,0.4
		c0.3,0,0.5-0.1,0.5,0.3c0,0.2,0.2,0.2,0.3,0.2c2.5,0.2,4,1.7,4.9,3.9c0.5,1.2,0.6,2.4,0.7,3.6c0,0.3,0.1,0.5,0.4,0.7
		c0.5,0.3,0.8,0.9,1,1.4c0.6,1.5,0.8,3.1,1,4.7c0.2,1.9,0.3,3.9,0.3,5.8c0,0.8-0.3,1.1-1,1.2c-1.1,0.1-2.3,0.1-3.4,0
		c-0.8-0.1-1.1-0.4-1.1-1.3c0.1-2.7,0-5.4,0.4-8.1c0.1-0.8,0.3-1.7,0.5-2.5c0.1-0.4,0.3-0.8,0.6-1c0.4-0.3,0.5-0.7,0.4-1.1
		c-0.2-1.8-0.5-3.6-1.8-5c-0.7-0.8-1.6-1.2-2.7-1.3c-0.3,0-0.6,0-0.5,0.4c0.1,0.5-0.1,0.6-0.6,0.6c-0.2,0-0.4-0.1-0.4,0.2
		c0,0.2-0.1,0.5,0.3,0.6c2.3,0.9,3.3,2.5,3.3,5c0,5.6,0,11.1,0,16.7c0,0.3,0,0.7-0.1,1c-0.1,0.9-0.7,1.5-1.5,1.7c-0.3,0-0.7,0-1.1,0
		c-1.6,0.1-3.2,0.1-4.9,0c-1.7-0.1-2.4-0.9-2.4-2.6c0-5.8,0-11.5,0-17.3c0-2.2,1.1-3.7,3-4.5c0.4-0.2,0.5-0.3,0.5-0.7
		c0-1.2,0-1.2-1.2-1.2c-1.1,0-2.2,0-3.3,0c-0.4,0-0.5-0.1-0.5-0.5s0.1-0.5,0.5-0.5c1.1,0,2.2,0,3.3,0c0.1-0.1,0-0.1-0.1-0.2
		c-1.5-0.6-2.9-1.3-4.4-1.9c-0.1,0-0.2,0-0.3,0C13.4,1.8,13.4,0.9,13.4,0.1z M17,20.6c0,1.5,0,3,0,4.5c0,0.4,0.1,0.5,0.5,0.5
		c2.3,0,4.7,0,7,0c0.4,0,0.5-0.1,0.5-0.5c0-3,0-5.9,0-8.9c0-0.4-0.1-0.5-0.5-0.5c-2.3,0-4.7,0-7,0c-0.4,0-0.5,0.1-0.5,0.5
		C17,17.6,17,19.1,17,20.6z M20.9,14.7c1.2,0,2.4,0,3.5,0c0.2,0,0.5,0.1,0.5-0.2c0-1.2,0.2-2.5-0.2-3.7c-0.5-1.3-1.4-2-2.7-2.4
		c-0.4-0.1-0.7-0.3-0.6-0.8c0.1-0.5,0-1,0-1.5c0-0.4-0.2-0.3-0.5-0.3c-0.2,0-0.5-0.1-0.5,0.3c0,0.5,0,1,0,1.5
		c0.1,0.5-0.2,0.7-0.7,0.8C18,8.9,17,10.3,17,12.1c0,0.7,0,1.4,0,2c0,0.4,0.1,0.5,0.5,0.5C18.6,14.6,19.8,14.7,20.9,14.7z M21,31.1
		c0.9,0,1.8,0,2.7-0.1c1-0.1,1.3-0.5,1.3-1.4s0-1.7,0-2.6c0-0.3-0.1-0.4-0.4-0.4c-2.4,0-4.8,0-7.1,0c-0.3,0-0.4,0.1-0.4,0.4
		c0,0.9,0,1.8,0,2.7c0,0.9,0.3,1.3,1.3,1.4C19.2,31.1,20.1,31.1,21,31.1z M27.3,22.2c0,0.8,0,1.5,0,2.3c0,0.2,0,0.4,0.3,0.5
		c0.9,0.1,1.9,0.1,2.8,0c0.3,0,0.4-0.1,0.4-0.4c0-2.9-0.1-5.7-0.7-8.5c-0.1-0.6-0.3-1.3-0.6-1.8c-0.2-0.3-0.3-0.7-0.7-0.6
		c-0.4,0-0.4,0.4-0.6,0.7c-0.1,0.3-0.2,0.7-0.3,1C27.5,17.6,27.4,19.9,27.3,22.2z M21.4,4.4c0.1-0.3-0.1-0.3-0.3-0.4
		c-0.7-0.3-1.3-0.5-2-0.8c-1.4-0.5-2.9-1.1-4.3-1.6c-0.1,0-0.3-0.2-0.4,0c-0.1,0.2,0,0.3,0.2,0.3c0.1,0,0.1,0.1,0.2,0.1
		c1.9,0.8,3.9,1.7,5.8,2.5c0.1,0.1,0.3,0.1,0.4,0.1C21.3,4.8,21.5,4.7,21.4,4.4z"/>
</g>
<g id="Calque_6" class="st0">
	<path class="st1" d="M29.2,6.5L12.1,27.7c-1.7,2.1-4.7,2.7-6.5,1.2s-1.9-4.5-0.2-6.6L22.5,1.1l0,0L22,0.7c-0.3,0.2-0.5,0.4-0.7,0.7
		L3.4,23.5c-1.8,2.2-1.5,5.5,0.8,7.4c2.2,1.8,5.5,1.5,7.4-0.8L29.4,8c0.2-0.3,0.4-0.5,0.6-0.8L29.2,6.5L29.2,6.5z"/>
	<circle class="st1" cx="24.3" cy="4.7" r="0.9"/>
	<circle class="st1" cx="21.3" cy="8.1" r="0.9"/>
	<circle class="st1" cx="25.8" cy="1.9" r="0.9"/>
	<circle class="st1" cx="28.2" cy="4" r="0.9"/>
	<circle class="st1" cx="29" cy="1" r="0.9"/>
	<circle class="st1" cx="24.7" cy="7.4" r="0.9"/>
	<circle class="st1" cx="27.1" cy="6.1" r="0.9"/>
	<line class="st7" x1="13.5" y1="11.6" x2="25.8" y2="11.5"/>
</g>
<g id="Calque_7" class="st0">
	<path class="st1" d="M1.5,16.1c0-8.8,7.2-16,16-16s16,7.2,15.9,16c0,8.8-7.2,16-16,16S1.4,24.9,1.5,16.1z M17.5,1.2
		c-4.1,0-7.7,1.5-10.6,4.4s-4.3,6.5-4.3,10.7c0,8,6.7,14.7,14.9,14.7s15-6.8,14.9-14.9c-0.1-5.3-2.3-9.4-6.6-12.4
		C23.3,2,20.5,1.1,17.5,1.2z"/>
	<path class="st1" d="M10.8,18.4c0-0.5,0-0.9,0-1.4c0-0.1,0.1-0.2,0.2-0.3c0.2-0.2,0.5-0.3,0.7-0.5c0.3-0.2,0.6-0.4,0.9-0.7
		c0.2-0.1,0.4-0.3,0.6-0.4c0.2-0.2,0.4-0.3,0.6-0.5c0.2-0.1,0.4-0.3,0.6-0.4c0.2-0.2,0.5-0.4,0.7-0.5s0.4-0.2,0.5-0.4
		c0.2-0.2,0.4-0.3,0.6-0.4c0.2-0.2,0.5-0.4,0.7-0.5s0.3-0.2,0.5-0.4c0.1,0,0.1,0,0.1,0c0.2,0.1,0.3,0.2,0.5,0.3
		c0.2,0.2,0.5,0.4,0.7,0.5c0.3,0.2,0.6,0.4,0.8,0.6c0.2,0.2,0.5,0.3,0.7,0.5s0.4,0.3,0.7,0.5s0.5,0.4,0.8,0.6
		c0.4,0.3,0.7,0.5,1.1,0.8c0.3,0.2,0.7,0.5,1,0.7c0.1,0.1,0.2,0.2,0.3,0.2s0.1,0.1,0.1,0.2c0,0.9,0,1.9,0,2.8c0,0.1,0,0.1-0.1,0.2
		c-0.1,0-0.2,0-0.2,0c-0.2-0.1-0.3-0.2-0.5-0.3c-0.2-0.1-0.4-0.3-0.6-0.4c-0.2-0.2-0.5-0.4-0.7-0.5s-0.3-0.2-0.5-0.4
		c-0.2-0.1-0.4-0.3-0.6-0.4c-0.2-0.1-0.3-0.2-0.5-0.4c-0.3-0.2-0.5-0.4-0.8-0.6c-0.1-0.1-0.2-0.1-0.3-0.2c-0.2-0.2-0.5-0.4-0.8-0.6
		c-0.2-0.1-0.3-0.2-0.5-0.4c-0.2-0.1-0.4-0.3-0.5-0.4c-0.1-0.1-0.2-0.1-0.2-0.2c0,0,0,0-0.1,0c-0.3,0.2-0.5,0.4-0.8,0.6
		c-0.4,0.3-0.8,0.6-1.1,0.9c-0.2,0.2-0.5,0.3-0.7,0.5c-0.3,0.2-0.7,0.5-1,0.7s-0.5,0.4-0.7,0.5c-0.3,0.2-0.7,0.5-1,0.7
		c-0.2,0.1-0.3,0.2-0.5,0.4c-0.2,0.1-0.4,0.3-0.6,0.4c0,0-0.1,0.1-0.2,0.1c-0.1,0,0-0.1,0-0.1C10.8,19.4,10.8,18.9,10.8,18.4z"/>
	<path class="st1" d="M10.8,14.4c0-0.1,0-0.1,0-0.2c0-0.9,0-1.9,0-2.8c0-0.1,0.1-0.2,0.2-0.3c0.2-0.2,0.5-0.3,0.7-0.5
		c0.3-0.2,0.6-0.5,0.9-0.7c0.2-0.1,0.4-0.3,0.6-0.4c0.2-0.2,0.5-0.3,0.7-0.5c0.2-0.1,0.4-0.3,0.5-0.4c0.2-0.1,0.4-0.3,0.6-0.4
		c0.2-0.1,0.4-0.3,0.5-0.4c0.2-0.2,0.5-0.4,0.7-0.5c0.1-0.1,0.2-0.1,0.3-0.2c0.3-0.2,0.5-0.4,0.8-0.6c0,0,0.1-0.1,0.1,0
		C17.6,6.7,17.8,6.8,18,7c0.2,0.2,0.4,0.3,0.6,0.5c0.3,0.2,0.6,0.5,0.9,0.7c0.2,0.2,0.5,0.3,0.7,0.5s0.5,0.4,0.8,0.6
		c0.2,0.2,0.4,0.3,0.6,0.4c0.3,0.2,0.6,0.4,0.9,0.7c0.1,0.1,0.2,0.2,0.4,0.2c0.2,0.2,0.5,0.4,0.7,0.5c0.1,0.1,0.2,0.2,0.3,0.2
		c0.1,0.1,0.1,0.1,0.1,0.2c0,0.9,0,1.9,0,2.8c0,0.1-0.1,0.2-0.2,0.1c-0.2-0.1-0.4-0.3-0.6-0.4c-0.2-0.2-0.5-0.3-0.7-0.5
		c-0.3-0.3-0.7-0.5-1-0.7c-0.2-0.1-0.3-0.2-0.5-0.4c-0.3-0.2-0.6-0.5-1-0.7c-0.3-0.2-0.5-0.4-0.8-0.6c-0.2-0.2-0.5-0.3-0.7-0.5
		c-0.2-0.1-0.4-0.3-0.5-0.4c0-0.2-0.3-0.4-0.5-0.6h-0.1c-0.3,0.3-0.7,0.5-1,0.7s-0.5,0.4-0.8,0.6c-0.2,0.2-0.5,0.4-0.7,0.5
		c-0.3,0.2-0.6,0.5-0.9,0.7c-0.3,0.2-0.5,0.4-0.8,0.6c-0.4,0.3-0.8,0.5-1.1,0.8c-0.2,0.1-0.4,0.3-0.6,0.4c-0.2,0.1-0.4,0.3-0.6,0.4
		C10.9,14.4,10.9,14.4,10.8,14.4z"/>
	<path class="st1" d="M10.8,24.2c0-0.5,0-1,0-1.4c0-0.1,0-0.2,0.1-0.2c0.3-0.2,0.5-0.4,0.8-0.6c0.2-0.1,0.4-0.3,0.6-0.4
		c0.3-0.2,0.6-0.4,0.9-0.7c0.2-0.2,0.5-0.4,0.8-0.6s0.5-0.4,0.8-0.6c0.2-0.2,0.5-0.3,0.7-0.5s0.5-0.3,0.7-0.5
		c0.1-0.1,0.3-0.2,0.5-0.3c0.2-0.2,0.5-0.4,0.7-0.5c0.1,0,0.1,0,0.2,0c0.3,0.2,0.5,0.4,0.8,0.6c0.2,0.1,0.4,0.2,0.5,0.4
		c0.3,0.2,0.5,0.4,0.8,0.6c0.2,0.1,0.3,0.3,0.5,0.4s0.3,0.3,0.5,0.4s0.4,0.2,0.5,0.4c0.2,0.2,0.5,0.4,0.7,0.5s0.4,0.2,0.5,0.4
		c0.3,0.2,0.7,0.5,1,0.7c0.2,0.1,0.4,0.3,0.6,0.4c0.2,0.1,0.3,0.2,0.2,0.4c0,0.9,0,1.7,0,2.6c0,0.1,0,0.2-0.1,0.2
		c-0.1,0.1-0.1,0-0.2-0.1c-0.4-0.3-0.8-0.6-1.2-0.9s-0.8-0.6-1.2-0.9c-0.3-0.2-0.7-0.5-1-0.7c-0.2-0.2-0.5-0.3-0.7-0.5
		c-0.3-0.2-0.6-0.4-0.9-0.6c-0.3-0.3-0.7-0.5-1-0.8c-0.1-0.1-0.3-0.2-0.5-0.3h-0.1c-0.2,0.2-0.5,0.3-0.7,0.5s-0.5,0.4-0.8,0.6
		c-0.2,0.2-0.5,0.4-0.7,0.5s-0.4,0.2-0.6,0.4c-0.2,0.2-0.5,0.3-0.7,0.5c-0.2,0.1-0.3,0.2-0.5,0.4c-0.2,0.1-0.4,0.3-0.6,0.4
		c-0.2,0.1-0.4,0.3-0.5,0.4c-0.2,0.1-0.4,0.3-0.6,0.4c-0.1,0.1-0.3,0.2-0.4,0.3c-0.1,0.1-0.3,0.2-0.4,0.3h-0.1v-0.1
		C10.8,25.1,10.8,24.7,10.8,24.2z"/>
</g>
<g id="Calque_9">
	<path class="st6" d="M1.5,16.1c0-8.8,7.2-16,16-16s16,7.2,15.9,16c0,8.8-7.2,16-16,16S1.4,24.9,1.5,16.1z M17.5,1.2
		c-4.1,0-7.7,1.5-10.6,4.4s-4.3,6.5-4.3,10.7c0,8,6.7,14.7,14.9,14.7s15-6.8,14.9-14.9c-0.1-5.3-2.3-9.4-6.6-12.4
		C23.3,2,20.5,1.1,17.5,1.2z"/>
	<path class="st8" d="M13.7,16.1c0-2.1,1.7-3.8,3.8-3.8c2.1,0,3.8,1.7,3.8,3.8s-1.7,3.8-3.8,3.8C15.4,19.9,13.7,18.2,13.7,16.1z
		 M17.5,12.5c-1,0-1.8,0.4-2.5,1.1c-0.7,0.7-1,1.5-1,2.5c0,1.9,1.6,3.5,3.5,3.5c1.9,0,3.6-1.6,3.5-3.5c0-1.3-0.6-2.2-1.6-2.9
		C18.9,12.7,18.2,12.5,17.5,12.5z"/>
</g>
<g id="Calque_8" class="st0">
	<path class="st1" d="M44.1,25.5c-1.9-1.5-3.8-3-5.7-4.6c-1.1-0.9-1.9-2.4-1.8-3.6c0.2-2.3-3.5-4.8-4.1-5.3c0,0-0.9-0.7-1.6-1.3
		c-0.8-0.6-1.6-0.6-2.3,0.2c-0.1,0-0.2,0.1-0.2,0.1c-0.8,0.9-1.8,0.5-2.1-0.2c-0.4-1.1-6-5.7-7.4-6.5C18.3,4,17.6,3,17,3.5
		c-0.9,0.7-1.2-0.4-1.2-1.2c0-1.2,0.4-1.3-0.2-1.7c-0.5-0.3-0.8,0.6-0.8,0.6s-0.5,0.6-0.7,0.7c-0.2-0.1-0.3-0.1-0.4-0.1l0,0
		c0.4-0.4-0.9-1.1-1.4-1.6c-0.3-0.3-0.7-0.3-1,0.1c-0.4,0.4-0.2,0.7,0.1,1c0.6,0.5,1.4,1.6,2,1.2c0.1,0,0.2,0,0.2,0
		c0.2,0.2,0.7,0.6,0.8,0.7c0.6,0.6,1.3,1.1,1.2,2.1c-0.1,1.1,7.5,6.8,9,8.3c-1.3,1.4-5.2,5.5-4.7,5.8c-0.3,0.4,1.7,2.6,1.8,2.7
		c0.9,0.8,2.1-1.2,3.2-2.1c0.7-0.6,1.4-2.1,2.8-0.8c0.5,0.6-0.9,2,0.6,2c0.1-0.3,0.3-0.8,0.7-0.9c0.2,0,0.5,0.8,0.7,0.9
		c0.1,0,0.2,0.1,0.3,0.1c-0.1,0.1-0.6,0.2-0.8,0.4c0.9,0.8,0.6,3.9,0.6,4.4c0.1,1.1,0.1,1.6,1.8,1.7c1.1,0.1,1-0.4,1.1-1.7
		c0-0.8-0.1-1.6,0.2-2.4c0.4-1.2,1.6-2,2.6-1.3c1.3,0.9,2.7,1.9,2.9,3.8c0.1,1.1,0.3,2.1,0.4,3.2c0.1,1.2,1.2,1.7,2,2.1
		c0.9,0.5,1.2-0.6,1.6-1.1c0.8-0.8,1.4-1.8,2.2-2.6C45.3,27.1,45.2,26.3,44.1,25.5z M15.4,1.8c-0.1,0.1-0.1,0.1-0.2,0.2
		c0-0.1,0-0.3,0.1-0.4C15.3,1.7,15.4,1.7,15.4,1.8z M34.4,16.5c-1.8-1.5-3.5-2.8-5.2-4.2c-0.5-0.4-0.1-0.4-0.1-0.7
		c0.7-0.7,0.9-0.5,3.1,1.1C34.4,14.5,34.9,15.1,34.4,16.5z"/>
	<path class="st1" d="M-5.9,28.1c0.8,0.8,1.4,1.8,2.2,2.6c0.5,0.5,0.7,1.6,1.6,1.1c0.8-0.5,1.9-0.9,2-2.1c0.1-1.1,0.3-2.1,0.4-3.2
		c0.2-1.9,1.6-2.8,2.9-3.8c1-0.7,2.2,0,2.6,1.3C6,24.8,6,25.6,6,26.4c0,1.3-0.1,1.8,1.1,1.7c1.7-0.1,1.7-0.7,1.8-1.7
		c0-0.4-0.3-3.5,0.6-4.4c-0.1-0.2-0.7-0.3-0.8-0.4c0.1-0.1,0.2-0.1,0.3-0.1c0.2-0.1,0.5-0.9,0.7-0.9c0.4,0.1,0.6,0.6,0.7,0.9
		c1.5-0.1,0.1-1.4,0.6-2c1.3-1.3,2,0.2,2.8,0.8c1,0.9,2.3,2.9,3.2,2.1c0.1-0.1,2.1-2.3,1.8-2.7c0.4-0.3-3.5-4.4-4.7-5.8
		c1.5-1.5,9.1-7.2,9-8.3c-0.1-1,0.6-1.5,1.2-2.1c0.1-0.1,0.6-0.6,0.8-0.7c0-0.1,0.1-0.1,0.2,0c0.5,0.3,1.4-0.7,2-1.2
		c0.3-0.3,0.5-0.6,0.1-1C27,0,26.6,0,26.3,0.3c-0.5,0.5-1.9,1.1-1.4,1.6l0,0c-0.1,0-0.2,0-0.4,0.1c-0.2-0.2-0.7-0.7-0.7-0.7
		S23.5,0.4,23,0.7c-0.6,0.4-0.2,0.5-0.2,1.7c0,0.8-0.3,1.9-1.2,1.2c-0.7-0.6-1.4,0.4-2,0.7c-1.4,0.8-7,5.4-7.4,6.5
		c-0.2,0.7-1.3,1.1-2.1,0.2c-0.1,0-0.2,0-0.2-0.1c-0.8-0.9-1.5-0.8-2.3-0.2S6,12,6,12c-0.6,0.5-4.3,3-4.1,5.3
		C2,18.5,1.2,20,0.1,20.9c-1.9,1.6-3.8,3.1-5.7,4.6C-6.7,26.3-6.8,27.1-5.9,28.1z M23.2,1.6c0,0.1,0.1,0.2,0.1,0.4
		c-0.1-0.1-0.1-0.1-0.2-0.2C23.1,1.7,23.2,1.7,23.2,1.6z M6.2,12.6c2.1-1.6,2.4-1.8,3.1-1.1c0,0.3,0.4,0.3-0.1,0.7
		c-1.7,1.4-3.4,2.7-5.2,4.2C3.6,15.1,4.1,14.5,6.2,12.6z"/>
</g>
</svg>
