<?xml version="1.0" encoding="utf-8"?>
<!-- Generator: Adobe Illustrator 22.1.0, SVG Export Plug-In . SVG Version: 6.00 Build 0)  -->
<svg version="1.1" id="Calque_1" xmlns="http://www.w3.org/2000/svg" xmlns:xlink="http://www.w3.org/1999/xlink" x="0px" y="0px" width="32px" height="32px"
	 viewBox="0 0 100 100" style="enable-background:new 0 0 100 100;" xml:space="preserve">
<style type="text/css">
	.st0{fill:#FF0000;}
	.st1{fill:#8CC63F;}
	.st2{fill:#FBB03B;}
	.st3{fill:#808080;}
</style>
<g>
	<path d="M45.8,85.2h-2C21,85.2,2.5,66.7,2.5,43.9C2.5,21,21,2.5,43.8,2.5c22.8,0,41.4,18.5,41.4,41.4v2H45.8V85.2z M43.8,5.5
		C22.7,5.5,5.5,22.7,5.5,43.9c0,20.8,16.7,37.8,37.3,38.3V42.8h39.4C81.7,22.2,64.7,5.5,43.8,5.5z"/>
	<path d="M48.6,97.7V48.6h49.1l0,1.5c-0.1,12.7-5.1,24.5-14.1,33.5c-8.9,8.9-20.8,13.9-33.5,14.1L48.6,97.7z M51.6,51.6v43
		c23.1-1,42-19.9,43-43H51.6z"/>
</g>
</svg>
