<?xml version="1.0" encoding="utf-8"?>
<!-- Generator: Adobe Illustrator 22.1.0, SVG Export Plug-In . SVG Version: 6.00 Build 0)  -->
<svg version="1.1" id="Calque_1" xmlns="http://www.w3.org/2000/svg" xmlns:xlink="http://www.w3.org/1999/xlink" x="0px" y="0px" width="32px" height="32px"
	 viewBox="0 0 100 100" style="enable-background:new 0 0 100 100;" xml:space="preserve">
<style type="text/css">
	.st0{fill:#FF0000;}
	.st1{fill:#8CC63F;}
	.st2{fill:#FBB03B;}
	.st3{fill:#808080;}
</style>
<path d="M91.1,48.8H78V18.5c0-3-2.5-5.5-5.5-5.5H10c-3,0-5.5,2.5-5.5,5.5V59c0,3,2.5,5.5,5.5,5.5h8.1l-0.5,9.4l18.3-9.4H43v16.9
	c0,2.1,1.8,3.9,3.9,3.9h25.9l12.9,6.7l-0.4-6.7h5.7c2.1,0,3.9-1.8,3.9-3.9V52.7C95,50.6,93.2,48.8,91.1,48.8z M35.2,61.5l-0.6,0.3
	l-13.6,7l0.2-4.2l0.2-3.2H10c-1.4,0-2.5-1.1-2.5-2.5V18.5c0-1.4,1.1-2.5,2.5-2.5h62.5c1.4,0,2.5,1.1,2.5,2.5v30.3H46.9
	c-2.1,0-3.9,1.8-3.9,3.9v8.8H35.2z M92,81.3c0,0.5-0.4,0.9-0.9,0.9h-8.9l0.2,3.2l0.1,1.4l-8.3-4.3l-0.6-0.3H46.9
	c-0.5,0-0.9-0.4-0.9-0.9V64.5v-3v-8.8c0-0.5,0.4-0.9,0.9-0.9H75h3h13.1c0.5,0,0.9,0.4,0.9,0.9V81.3z"/>
</svg>
