<?xml version="1.0" encoding="utf-8"?>
<!-- Generator: Adobe Illustrator 22.1.0, SVG Export Plug-In . SVG Version: 6.00 Build 0)  -->
<svg version="1.1" id="Calque_1" xmlns="http://www.w3.org/2000/svg" xmlns:xlink="http://www.w3.org/1999/xlink" x="0px" y="0px" width="32px" height="32px"
	 viewBox="0 0 100 100" style="enable-background:new 0 0 100 100;" xml:space="preserve">
<style type="text/css">
	.st0{fill:#FF0000;}
	.st1{fill:#8CC63F;}
	.st2{fill:#FBB03B;}
	.st3{fill:#808080;}
</style>
<path d="M27.7,92.1c-9.1,0-16.5-7.4-16.5-16.5S18.6,59,27.7,59s16.5,7.4,16.5,16.5S36.8,92.1,27.7,92.1z M27.7,62
	c-7.4,0-13.5,6.1-13.5,13.5s6.1,13.5,13.5,13.5S41.2,83,41.2,75.5S35.1,62,27.7,62z"/>
<path d="M70.8,92.1c-0.8,0-1.5-0.7-1.5-1.5c0-21.6-5.8-37.1-17.3-46C34.7,31.1,10.3,37.1,10,37.2c-0.8,0.2-1.6-0.3-1.8-1.1
	c-0.2-0.8,0.3-1.6,1.1-1.8c1.1-0.3,26.1-6.4,44.5,7.9C66,51.7,72.3,68,72.3,90.6C72.3,91.4,71.6,92.1,70.8,92.1z"/>
<path d="M95.1,92.1c-0.8,0-1.5-0.7-1.5-1.5c0-30.3-8.3-52.3-24.7-65.2C43.5,5.5,7.3,13.9,6.9,14c-0.8,0.2-1.6-0.3-1.8-1.1
	c-0.2-0.8,0.3-1.6,1.1-1.8C7.8,10.7,44.3,2.2,70.7,23c17.2,13.5,25.9,36.2,25.9,67.5C96.6,91.4,95.9,92.1,95.1,92.1z"/>
</svg>
