<?xml version="1.0" encoding="utf-8"?>
<!-- Generator: Adobe Illustrator 22.1.0, SVG Export Plug-In . SVG Version: 6.00 Build 0)  -->
<svg version="1.1" id="Calque_1" xmlns="http://www.w3.org/2000/svg" xmlns:xlink="http://www.w3.org/1999/xlink" x="0px" y="0px" width="32px" height="32px"
	 viewBox="0 0 100 100" style="enable-background:new 0 0 100 100;" xml:space="preserve">
<style type="text/css">
	.st0{fill:#FF0000;}
	.st1{fill:#8CC63F;}
	.st2{fill:#FBB03B;}
	.st3{fill:#808080;}
</style>
<g>
	<path d="M29.9,75.4c4.2-2.3,7.1-6.8,7.1-12c0-7.6-6.1-13.7-13.7-13.7S9.5,55.8,9.5,63.4c0,5.2,2.9,9.7,7.1,12
		c-8,2.8-13.9,10.4-13.9,19.3c0,0.8,0.7,1.5,1.5,1.5s1.5-0.7,1.5-1.5c0-9.6,7.8-17.5,17.5-17.5s17.5,7.8,17.5,17.5
		c0,0.8,0.7,1.5,1.5,1.5s1.5-0.7,1.5-1.5C43.7,85.8,37.9,78.2,29.9,75.4z M12.5,63.4c0-5.9,4.8-10.7,10.7-10.7S34,57.5,34,63.4
		s-4.8,10.7-10.7,10.7S12.5,69.3,12.5,63.4z"/>
	<path d="M68.1,48.1c0,0.8,0.7,1.5,1.5,1.5s1.5-0.7,1.5-1.5c0-9-5.8-16.6-13.9-19.3c4.2-2.3,7.1-6.8,7.1-12C64.4,9.1,58.2,3,50.6,3
		S36.9,9.1,36.9,16.7c0,5.2,2.9,9.7,7.1,12c-8,2.8-13.9,10.4-13.9,19.3c0,0.8,0.7,1.5,1.5,1.5s1.5-0.7,1.5-1.5
		c0-9.6,7.8-17.5,17.5-17.5C60.3,30.6,68.1,38.5,68.1,48.1z M39.9,16.7C39.9,10.8,44.7,6,50.6,6s10.7,4.8,10.7,10.7
		s-4.8,10.7-10.7,10.7S39.9,22.6,39.9,16.7z"/>
	<path d="M82.9,75.4c4.2-2.3,7.1-6.8,7.1-12c0-7.6-6.1-13.7-13.7-13.7c-7.6,0-13.7,6.1-13.7,13.7c0,5.2,2.9,9.7,7.1,12
		c-8,2.8-13.9,10.4-13.9,19.3c0,0.8,0.7,1.5,1.5,1.5s1.5-0.7,1.5-1.5c0-9.6,7.8-17.5,17.5-17.5c9.6,0,17.5,7.8,17.5,17.5
		c0,0.8,0.7,1.5,1.5,1.5s1.5-0.7,1.5-1.5C96.8,85.8,91,78.2,82.9,75.4z M65.6,63.4c0-5.9,4.8-10.7,10.7-10.7
		c5.9,0,10.7,4.8,10.7,10.7s-4.8,10.7-10.7,10.7C70.4,74.1,65.6,69.3,65.6,63.4z"/>
</g>
</svg>
