<svg id="Calque_2" data-name="Calque 2" xmlns="http://www.w3.org/2000/svg" viewBox="0 0 200 200"><defs><style>.cls-1{fill:#2b3c47;}</style></defs><title>ico ELEC ANALOGIQUE</title><path class="cls-1" d="M139.93,80.15a21.36,21.36,0,0,1-2.69-6.37c-.58-2.65-1.28-5.28-2-7.89a5.14,5.14,0,0,0-3.78-4,17,17,0,0,0-7.1,0,3.26,3.26,0,0,0-2.61,2.76c-.51,2.46-1,4.92-1.53,7.39-.12.58-.34.77-.94.73-1.71-.11-3.42-.16-5.13-.22q-15.39-.57-30.76.23c-.76,0-1.06-.17-1.2-.92-.43-2.35-1-4.67-1.42-7a3.56,3.56,0,0,0-3.15-3.08,22.43,22.43,0,0,0-5.73-.07,5,5,0,0,0-4.16,2.95c-.92,1.86-1.11,3.93-1.71,5.88-.82,2.68-1.21,5.49-2.64,8-3.41,6-7,11.82-10.08,18-1.75,3.56-3.65,7-5.15,10.71a.72.72,0,0,0-.29.57c-1,2-1.75,4-2.54,6A79.32,79.32,0,0,0,40.1,134.2a68.62,68.62,0,0,0,.1,13.29,51.46,51.46,0,0,0,1.81,11c.7,2.25,1.66,4.27,4.29,4.83,1.53.33,2.13,1.41,2.29,2.92.24,2.29.88,2.78,3.21,2.77L61.88,169c1.39,0,1.48-.07,1.79-1.47a2,2,0,0,1,2.63-1.75c2.69.44,5.4.66,8.11.84,7.62.52,15.24.82,22.87.94,4.71.08,9.41,0,14.11-.19l.45,0,1.08,0c.18.08.36.12.51-.08a8.37,8.37,0,0,0,2,0,191.1,191.1,0,0,0,20.71-1.45c1.49-.2,2.24.28,2.56,1.71s.5,1.66,2,1.6c3.22-.13,6.45-.08,9.67,0,2.56,0,3.14-.45,3.43-3a2.7,2.7,0,0,1,2.17-2.68c2.52-.52,3.57-2.36,4.29-4.58,1.51-4.66,1.75-9.5,2.13-14.32.85-10.72-1.47-20.92-5.39-30.8A230.72,230.72,0,0,0,139.93,80.15ZM54.84,102.21a1.06,1.06,0,0,0-.33.55A1.06,1.06,0,0,1,54.84,102.21Zm102.09,44a76.59,76.59,0,0,1-.9,7.7c-.09.43-.24.84-.3,1.27a4.17,4.17,0,0,1-3.08,3.89,6,6,0,0,0-3.54,3.92c-.18.48-.4.69-.93.66-.77-.05-1.55,0-2.32,0-1.69,0-3.18.07-4.5-1.58s-3.77-2-6-1.61c-4.1.64-8.22.88-12.35,1.12-9.81.59-19.64.8-29.47.57-8.2-.19-16.4-.54-24.56-1.37l-1.4-.17h0a2.92,2.92,0,0,0-1.4-.2H65a2.87,2.87,0,0,0-1.6.35c-1.54.22-2.42,1.41-3.42,2.41a1.23,1.23,0,0,1-.79.48,7.39,7.39,0,0,1-2.85,0,13,13,0,0,0-2.65,0c-.45-.33-.41-.89-.64-1.33a7.65,7.65,0,0,0-4.72-4,1.54,1.54,0,0,1-1.09-1.14c-1.23-3.71-1.4-7.58-1.8-11.42-.93-9.13.6-17.91,3.57-26.52,1.12-3.24,2.41-6.4,3.78-9.53a7.79,7.79,0,0,0,1.11-2.52.58.58,0,0,0,.2-.57l1.08-2h0a.45.45,0,0,0,.14-.51,5.72,5.72,0,0,0,.92-1.72c.11-.18.21-.37.31-.56a3.23,3.23,0,0,0-1.4.18,3.23,3.23,0,0,1,1.4-.18c2.15-4,4.19-8.17,6.48-12.15,1.84-3.19,3.76-6.34,5.55-9.57A17.32,17.32,0,0,0,70,76.43c.78-2.74,1.46-5.51,2.11-8.29a1.32,1.32,0,0,1,1.52-1.2c2.07,0,2.1,0,2.54,2,.62,2.89,1.22,5.79,1.77,8.69.13.7.39.85,1,.8,8.92-.63,17.86-.76,26.81-.69,5.85,0,11.7.27,17.53.7.91.07,1.12-.28,1.28-1.06.62-3.23,1.33-6.44,2-9.67.13-.65.42-.8,1-.77,3,.13,2.32-.35,3,2.33.64,2.4,1.29,4.79,1.85,7.21a25.7,25.7,0,0,0,3.38,7.16,264.2,264.2,0,0,1,14.11,26.8,84.89,84.89,0,0,1,6.65,21.17A53.94,53.94,0,0,1,156.93,146.18Z"/><path class="cls-1" d="M182.94,63.37c-2-8-6.8-13.87-13.64-18.24a71.43,71.43,0,0,0-15.47-7,148.15,148.15,0,0,0-28.2-6.6,188.11,188.11,0,0,0-21.19-1.7A171.53,171.53,0,0,0,77,31.41,115.9,115.9,0,0,0,65,33.6h0a6.93,6.93,0,0,0-2.41.55,45.35,45.35,0,0,0-7,1.81,7.68,7.68,0,0,0-2.54.7,8.64,8.64,0,0,0-.3,1.37,8.64,8.64,0,0,1,.3-1.37c-7.07,2.11-14,4.59-20.24,8.58S22,54.52,19.85,61.72a27.27,27.27,0,0,0-1.47,10.21,7.91,7.91,0,0,0,5,7.16,20,20,0,0,0,5.31,1.52A55.23,55.23,0,0,0,53.77,78a9.57,9.57,0,0,0,5.85-5.43,71.13,71.13,0,0,0,2.84-7.75A18.26,18.26,0,0,1,70.7,54.78a41.13,41.13,0,0,1,13.68-4.89,69,69,0,0,1,11.84-1c5.4-.15,10.81-.49,16.2.26l.2,0a49.07,49.07,0,0,1,16.76,4.46c4.22,2.11,7.79,5,9.72,9.4,1.09,2.48,1.84,5.11,2.78,7.67a16.34,16.34,0,0,0,2.37,4.53c1.69,2.22,4.23,2.87,6.7,3.62A56,56,0,0,0,170,81a27.06,27.06,0,0,0,7.61-1.35c4.33-1.5,6.14-3.84,6.38-8.4A26.84,26.84,0,0,0,182.94,63.37Zm-4.32,8.31c-.1,2-1.71,2.58-3.25,3.06a29.84,29.84,0,0,1-9.59,1A47.85,47.85,0,0,1,150,72.85a3.72,3.72,0,0,1-2.16-1.92,50.09,50.09,0,0,1-2.76-7.35,23.08,23.08,0,0,0-8.61-11.92,41.64,41.64,0,0,0-16.34-6.77l-1.68-.32c-1.35-.25-2.71-.45-4.08-.58h0a.94.94,0,0,0-.15-.06l-.1,0a.63.63,0,0,0-.27,0c-5-.8-10.06-.61-15.1-.49A107.1,107.1,0,0,0,86,44.24a49.52,49.52,0,0,0-16.07,4.9C64.76,51.83,60.57,55.51,58.24,61c-.92,2.15-1.57,4.42-2.38,6.62C54,72.76,54,72.45,49.32,73.82a48.24,48.24,0,0,1-19.56,1.54A14.17,14.17,0,0,1,25.24,74a2.5,2.5,0,0,1-1.47-2,18.12,18.12,0,0,1,.79-7.46c1.78-6.87,6.06-11.76,12-15.36A75.38,75.38,0,0,1,51,42.91l2.36-.84a7.56,7.56,0,0,1-.61-2.68,7.56,7.56,0,0,0,.61,2.68,4.79,4.79,0,0,0,2-.63h0c.6-.2,1.28-.14,1.81-.54a2.56,2.56,0,0,0,1.22-.27l1.84-.57a2.82,2.82,0,0,0,1.42-.29l.35-.06.21-.06a1.83,1.83,0,0,0,1.13-.4A2.89,2.89,0,0,0,64.79,39a5.59,5.59,0,0,0,1.61-.4,1.23,1.23,0,0,0,1-.2h0l.59-.06.22-.07c5.38-1,10.78-1.87,16.24-2.38a169.17,169.17,0,0,1,31-.15c2.07.19,4.14.41,6.21.61l.79.07c3.31.52,6.64,1,9.94,1.59a131.3,131.3,0,0,1,21.94,6,66.37,66.37,0,0,1,11.76,5.45,25.18,25.18,0,0,1,12.44,19.13A18.05,18.05,0,0,1,178.62,71.68Z"/><path class="cls-1" d="M109.66,85.51a47.17,47.17,0,0,0-25.95,2.55c-7.93,3.15-14.57,8-19.07,15.32-6,9.7-6.62,19.9-1.52,30.17,4.92,9.91,13.13,16.13,23.43,19.71a44.62,44.62,0,0,0,24.16,1.44,47.35,47.35,0,0,0,9-2.89c.61-.26.7-.53.4-1.12a30.94,30.94,0,0,1-1.46-3.21c-.27-.73-.58-.76-1.25-.47a40.2,40.2,0,0,1-20.63,3.09,38.75,38.75,0,0,1-13.64-4c-6.81-3.47-12.19-8.4-15.52-15.39a24.26,24.26,0,0,1-2.08-15.22C66.9,108,71,102.2,77,97.82c10-7.21,21.11-9.06,33.07-6.81a53.09,53.09,0,0,1,7.6,2.27A13.64,13.64,0,0,0,120,94.35a50.65,50.65,0,0,1,6.58,4.26l1.72,1.44c.22.25.45.5.68.74,7.06,7.22,10,15.64,7.47,25.66a24.8,24.8,0,0,1-3.78,8.08c-.42.6-.58,1,.27,1.31a24.68,24.68,0,0,1,2.48,1.33c1.38.79,1.38.8,2.25-.55a30.55,30.55,0,0,0-1.89-36.21C129,92,120.1,87.35,109.66,85.51Z"/><path class="cls-1" d="M118.89,131.3a17,17,0,0,0-1-24.05,23.24,23.24,0,0,0-14.47-6.33c-7.75-.58-14.54,1.61-19.92,7.43a16.8,16.8,0,0,0-.09,22.82c4.76,5.24,10.84,7.46,17.84,7.63C108.12,138.63,114.13,136.45,118.89,131.3ZM113.71,129a18.91,18.91,0,0,1-12.59,4.5,18.68,18.68,0,0,1-13.29-5.4,11.65,11.65,0,0,1,0-16.56,18.4,18.4,0,0,1,14.49-5.3,17.55,17.55,0,0,1,12,5C119.64,116.5,119.36,124,113.71,129Z"/><path class="cls-1" d="M133.77,140.27c-3.9-2.11-7.82-4.18-11.74-6.24a2.87,2.87,0,0,0-4.21,2.42,3.41,3.41,0,0,0,.25,1.34c.84,1.83,1.64,3.68,2.48,5.51,1,2.28,2,4.6,3.2,6.83a2.77,2.77,0,0,0,4.41.83c2.11-1.81,4.2-3.64,6.25-5.52C136.3,143.71,136,141.49,133.77,140.27Z"/><path class="cls-1" d="M82.76,141.61a4.09,4.09,0,0,0,4.09,4.1A4.14,4.14,0,0,0,91,141.64a4.1,4.1,0,0,0-4.16-4.11A4,4,0,0,0,82.76,141.61Z"/><path class="cls-1" d="M127.62,106a4.09,4.09,0,1,0,.08,8.18,4.14,4.14,0,0,0,4.09-4.14A4.1,4.1,0,0,0,127.62,106Z"/><path class="cls-1" d="M125.78,123.42a4.12,4.12,0,1,0,4.16-4A4.08,4.08,0,0,0,125.78,123.42Z"/><path class="cls-1" d="M76.37,136.69a4.11,4.11,0,1,0,.08-8.22,4.11,4.11,0,0,0-.08,8.22Z"/><path class="cls-1" d="M97.5,144.63a4.11,4.11,0,0,0,8.22,0,4.11,4.11,0,0,0-8.22,0Z"/><path class="cls-1" d="M68,119.64A4.08,4.08,0,0,0,72,123.77a4.13,4.13,0,0,0,4.14-4.07,4,4,0,0,0-4.11-4.12A4,4,0,0,0,68,119.64Z"/><path class="cls-1" d="M80.86,106.61a4.11,4.11,0,1,0-4.12,4.07A4.08,4.08,0,0,0,80.86,106.61Z"/><path class="cls-1" d="M93,97.86a4.09,4.09,0,0,0-4.16-4.16,4.09,4.09,0,0,0-.05,8.17A4.14,4.14,0,0,0,93,97.86Z"/><path class="cls-1" d="M103.55,99.61a4.09,4.09,0,0,0,4.07-4.13,4.13,4.13,0,0,0-4.13-4.08,4.11,4.11,0,0,0,.06,8.21Z"/><path class="cls-1" d="M121.14,97.47A2.84,2.84,0,0,0,119.3,96a3.45,3.45,0,0,0-2.62,0,2.68,2.68,0,0,0-1.62.89,4.12,4.12,0,0,0-.89,4.61,3.77,3.77,0,0,0,3.51,2.31,3.4,3.4,0,0,0,2.83-.79,3.62,3.62,0,0,0,1.43-3.34A2.4,2.4,0,0,0,121.14,97.47Z"/></svg>